<mxfile host="app.diagrams.net" modified="2024-05-12T10:02:22.178Z" agent="Mozilla/5.0 (Windows NT 10.0; Win64; x64) AppleWebKit/537.36 (KHTML, like Gecko) Chrome/124.0.0.0 Safari/537.36" etag="InAoPz6oa9Ws6LHgSE-K" version="24.4.0" type="device">
  <diagram name="Page-1" id="Pf7bOsT13w61b3k4hGVZ">
    <mxGraphModel dx="5418" dy="1492" grid="1" gridSize="10" guides="1" tooltips="1" connect="1" arrows="1" fold="1" page="1" pageScale="1" pageWidth="850" pageHeight="1100" math="0" shadow="0">
      <root>
        <mxCell id="0" />
        <mxCell id="1" parent="0" />
        <UserObject label="" plantUmlData="{&quot;data&quot;:&quot;@startuml\nclass Builder {\n    + Builder(fileInfo:SudokuFileInfo)\n    + GetPuzzle() : Puzzle\n    + SetPossibleNumbers(mainCluster:Cluster) : void\n    + &lt;&lt;virtual&gt;&gt; CreateClusters() : void\n}\nIBuilder &lt;|-- Builder\n@enduml\n@startuml\ninterface IBuilder {\n    + {abstract} CreateClusters() : void\n    + {abstract} CreateGrid(input:string) : void\n    + SetPossibleNumbers(mainCluster:Cluster) : void\n    + GetPuzzle() : Puzzle\n}\n@enduml\n@startuml\nclass JigsawBuilder {\n    + JigsawBuilder(fileInfo:SudokuFileInfo)\n    &lt;&lt;override&gt;&gt; + CreateGrid(input:string) : void\n    &lt;&lt;override&gt;&gt; + CreateClusters() : void\n}\nBuilder &lt;|-- JigsawBuilder\n@enduml\n@startuml\nclass SamuraiBuilder {\n    + SamuraiBuilder(fileInfo:SudokuFileInfo)\n    &lt;&lt;override&gt;&gt; + CreateGrid(input:string) : void\n    &lt;&lt;override&gt;&gt; + CreateClusters() : void\n}\nBuilder &lt;|-- SamuraiBuilder\n@enduml\n@startuml\nclass Cell {\n    + Cell(coord:Coord, startValue:int)\n}\nIComponent &lt;|-- Cell\nCell --&gt; \&quot;Coord\&quot; Coord\n@enduml\n@startuml\nclass Cluster {\n    + Cluster()\n}\nIComponent &lt;|-- Cluster\n\n@enduml\n@startuml\nclass Coord {\n    + X : int &lt;&lt;get&gt;&gt; &lt;&lt;set&gt;&gt;\n    + Y : int &lt;&lt;get&gt;&gt; &lt;&lt;set&gt;&gt;\n    + Coord(x:int, y:int)\n}\n@enduml\n@startuml\ninterface IComponent {\n\n}\n@enduml\n@startuml\nclass FileReaderFactory {\n    + CreateFileInfo(filePath:string) : SudokuFileInfo\n}\n@enduml\n@startuml\nclass Puzzle {\n    + Puzzle(fileInfo:SudokuFileInfo)\n}\nCluster &lt;|-- Puzzle\nPuzzle --&gt; \&quot;FileInfo\&quot; SudokuFileInfo\n@enduml\n@startuml\nclass CorrectionModeState {\n    + CorrectionModeState(puzzleView:PuzzleView)\n    + &lt;&lt;override&gt;&gt; ChangeState() : void\n    + &lt;&lt;override&gt;&gt; Print() : void\n}\nModeState &lt;|-- CorrectionModeState\n@enduml\n@startuml\nclass FinalModeState {\n    + FinalModeState(puzzleView:PuzzleView)\n    + &lt;&lt;override&gt;&gt; ChangeState() : void\n    + &lt;&lt;override&gt;&gt; Print() : void\n}\nModeState &lt;|-- FinalModeState\n@enduml\n@startuml\nclass HelpModeState {\n    + HelpModeState(puzzleView:PuzzleView)\n    + &lt;&lt;override&gt;&gt; ChangeState() : void\n    + &lt;&lt;override&gt;&gt; Print() : void\n}\nModeState &lt;|-- HelpModeState\n@enduml\n@startuml\nabstract class ModeState {\n    + ModeState(puzzleView:PuzzleView)\n    + {abstract} Print() : void\n    + {abstract} ChangeState() : void\n}\n@enduml\n@startuml\nclass FourByFourFileReader {\n    + ReadFile(path:string) : SudokuFileInfo\n}\nIFileReader &lt;|-- FourByFourFileReader\n@enduml\n@startuml\ninterface IFileReader {\n    + ReadFile(path:string) : SudokuFileInfo\n}\n@enduml\n@startuml\nclass JigsawFileReader {\n    + ReadFile(path:string) : SudokuFileInfo\n}\nIFileReader &lt;|-- JigsawFileReader\n@enduml\n@startuml\nclass NineByNineFileReader {\n    + ReadFile(path:string) : SudokuFileInfo\n}\nIFileReader &lt;|-- NineByNineFileReader\n@enduml\n@startuml\nclass SamuraiFileReader {\n    + ReadFile(path:string) : SudokuFileInfo\n}\nIFileReader &lt;|-- SamuraiFileReader\n@enduml\n@startuml\nclass SixBySixFileReader {\n    + ReadFile(path:string) : SudokuFileInfo\n}\nIFileReader &lt;|-- SixBySixFileReader\n@enduml\n@startuml\nclass SudokuFileInfo {\n    + Content : string &lt;&lt;get&gt;&gt; &lt;&lt;set&gt;&gt;\n    + ClusterHeight : int &lt;&lt;get&gt;&gt; &lt;&lt;set&gt;&gt;\n    + ClusterWidth : int &lt;&lt;get&gt;&gt; &lt;&lt;set&gt;&gt;\n    + Size : int &lt;&lt;get&gt;&gt; &lt;&lt;set&gt;&gt;\n    + FileExtension : string &lt;&lt;get&gt;&gt; &lt;&lt;set&gt;&gt;\n    + SudokuFileInfo(content:string)\n}\n@enduml\n@startuml\nclass PuzzleView {\n    + PuzzleView(puzzle:Puzzle, player:Player)\n    + changeMode(nextState:ModeState) : void\n    + Print() : void\n}\nPuzzleView --&gt; \&quot;ModeState\&quot; ModeState\nPuzzleView --&gt; \&quot;Puzzle\&quot; Puzzle\nPuzzleView --&gt; \&quot;Player\&quot; Player\n@enduml\n@startuml\nclass GameController {\n    + GameController()\n    + MovePlayer(newCoord:Coord) : void\n    + EnterNumber(number:int) : void\n}\nGameController --&gt; \&quot;Puzzle\&quot; Puzzle\nGameController o-&gt; \&quot;Player\&quot; Player\nGameController --&gt; \&quot;PuzzleView\&quot; PuzzleView\n@enduml\n@startuml\nclass InputHandler {\n    + InputHandler(gameController:GameController)\n    + GetInput() : void\n}\n@enduml\n@startuml\nclass Player {\n    + Player()\n    + Move(coords:Coord) : void\n    + getXCoord() : int\n    + getYCoord() : int\n}\nPlayer --&gt; \&quot;Coords\&quot; Coord\n@enduml\n&quot;,&quot;format&quot;:&quot;svg&quot;}" id="vayibTciEI2FYP_u4-QQ-1">
          <mxCell style="shape=image;noLabel=1;verticalAlign=top;aspect=fixed;imageAspect=0;image=data:image/svg+xml,PD94bWwgdmVyc2lvbj0iMS4wIiBlbmNvZGluZz0idXMtYXNjaWkiIHN0YW5kYWxvbmU9Im5vIj8+PHN2ZyB4bWxucz0iaHR0cDovL3d3dy53My5vcmcvMjAwMC9zdmciIHhtbG5zOnhsaW5rPSJodHRwOi8vd3d3LnczLm9yZy8xOTk5L3hsaW5rIiBjb250ZW50U3R5bGVUeXBlPSJ0ZXh0L2NzcyIgaGVpZ2h0PSI2NTVweCIgcHJlc2VydmVBc3BlY3RSYXRpbz0ibm9uZSIgc3R5bGU9IndpZHRoOjMzMTFweDtoZWlnaHQ6NjU1cHg7YmFja2dyb3VuZDojRkZGRkZGOyIgdmVyc2lvbj0iMS4xIiB2aWV3Qm94PSIwIDAgMzMxMSA2NTUiIHdpZHRoPSIzMzExcHgiIHpvb21BbmRQYW49Im1hZ25pZnkiPjxkZWZzLz48Zz48IS0tY2xhc3MgQnVpbGRlci0tPjxnIGlkPSJlbGVtX0J1aWxkZXIiPjxyZWN0IGNvZGVMaW5lPSIxIiBmaWxsPSIjRjFGMUYxIiBoZWlnaHQ9IjEwNy45Mzc1IiBpZD0iQnVpbGRlciIgcng9IjIuNSIgcnk9IjIuNSIgc3R5bGU9InN0cm9rZTojMTgxODE4O3N0cm9rZS13aWR0aDowLjU7IiB3aWR0aD0iMzUyIiB4PSIxMzA3LjUiIHk9IjE3NSIvPjxlbGxpcHNlIGN4PSIxNDU0Ljc1IiBjeT0iMTkxIiBmaWxsPSIjQUREMUIyIiByeD0iMTEiIHJ5PSIxMSIgc3R5bGU9InN0cm9rZTojMTgxODE4O3N0cm9rZS13aWR0aDoxLjA7Ii8+PHBhdGggZD0iTTE0NTIuMzc1LDE5NS4yNSBMMTQ1Mi4zNzUsMTk3IEwxNDU3LjMxMjUsMTk3IEwxNDU3LjMxMjUsMTk1LjI1IEwxNDUyLjM3NSwxOTUuMjUgWiBNMTQ1My4wNjI1LDE5NS45Mzc1IFExNDUzLjA2MjUsMTk1LjkzNzUgMTQ1My4wNjI1LDE4Ni43NSBMMTQ1MS4zMTI1LDE4Ni43NSBRMTQ1MS4zMTI1LDE4Ni43NSAxNDUxLjMxMjUsMTk1LjkzNzUgTDE0NTMuMDYyNSwxOTUuOTM3NSBaIE0xNDU2LjYyNSwxOTUuOTM3NSBMMTQ1OC4zNzUsMTk1LjkzNzUgUTE0NTguMzc1LDE5NS45Mzc1IDE0NTguMzc1LDE5My4xMjUgTDE0NTYuNjI1LDE5My4xMjUgUTE0NTYuNjI1LDE5My4xMjUgMTQ1Ni42MjUsMTk1LjkzNzUgWiBNMTQ1Ni42MjUsMTg2Ljc1IFExNDU2LjYyNSwxODYuNzUgMTQ1Ni42MjUsMTg5LjU2MjUgTDE0NTguMzc1LDE4OS41NjI1IFExNDU4LjM3NSwxODkuNTYyNSAxNDU4LjM3NSwxODYuNzUgTDE0NTYuNjI1LDE4Ni43NSBaIE0xNDUyLjM3NSwxODcuNDM3NSBMMTQ1Ny4zMTI1LDE4Ny40Mzc1IEwxNDU3LjMxMjUsMTg1LjY4NzUgTDE0NTIuMzc1LDE4NS42ODc1IEwxNDUyLjM3NSwxODcuNDM3NSBaICIgZmlsbD0iIzAwMDAwMCIvPjx0ZXh0IGZpbGw9IiMwMDAwMDAiIGZvbnQtZmFtaWx5PSJzYW5zLXNlcmlmIiBmb250LXNpemU9IjE0IiBsZW5ndGhBZGp1c3Q9InNwYWNpbmciIHRleHRMZW5ndGg9IjQ5IiB4PSIxNDc1LjI1IiB5PSIxOTYuNzQyMiI+QnVpbGRlcjwvdGV4dD48bGluZSBzdHlsZT0ic3Ryb2tlOiMxODE4MTg7c3Ryb2tlLXdpZHRoOjAuNTsiIHgxPSIxMzA4LjUiIHgyPSIxNjU4LjUiIHkxPSIyMDciIHkyPSIyMDciLz48bGluZSBzdHlsZT0ic3Ryb2tlOiMxODE4MTg7c3Ryb2tlLXdpZHRoOjAuNTsiIHgxPSIxMzA4LjUiIHgyPSIxNjU4LjUiIHkxPSIyMTUiIHkyPSIyMTUiLz48ZWxsaXBzZSBjeD0iMTMxOC41IiBjeT0iMjI3Ljk5MjIiIGZpbGw9IiM4NEJFODQiIHJ4PSIzIiByeT0iMyIgc3R5bGU9InN0cm9rZTojMDM4MDQ4O3N0cm9rZS13aWR0aDoxLjA7Ii8+PHRleHQgZmlsbD0iIzAwMDAwMCIgZm9udC1mYW1pbHk9InNhbnMtc2VyaWYiIGZvbnQtc2l6ZT0iMTQiIGxlbmd0aEFkanVzdD0ic3BhY2luZyIgdGV4dExlbmd0aD0iMjI2IiB4PSIxMzI3LjUiIHk9IjIzMi4yMzQ0Ij5CdWlsZGVyKGZpbGVJbmZvOlN1ZG9rdUZpbGVJbmZvKTwvdGV4dD48ZWxsaXBzZSBjeD0iMTMxOC41IiBjeT0iMjQyLjk3NjYiIGZpbGw9IiM4NEJFODQiIHJ4PSIzIiByeT0iMyIgc3R5bGU9InN0cm9rZTojMDM4MDQ4O3N0cm9rZS13aWR0aDoxLjA7Ii8+PHRleHQgZmlsbD0iIzAwMDAwMCIgZm9udC1mYW1pbHk9InNhbnMtc2VyaWYiIGZvbnQtc2l6ZT0iMTQiIGxlbmd0aEFkanVzdD0ic3BhY2luZyIgdGV4dExlbmd0aD0iMTQyIiB4PSIxMzI3LjUiIHk9IjI0Ny4yMTg4Ij5HZXRQdXp6bGUoKSA6IFB1enpsZTwvdGV4dD48ZWxsaXBzZSBjeD0iMTMxOC41IiBjeT0iMjU3Ljk2MDkiIGZpbGw9IiM4NEJFODQiIHJ4PSIzIiByeT0iMyIgc3R5bGU9InN0cm9rZTojMDM4MDQ4O3N0cm9rZS13aWR0aDoxLjA7Ii8+PHRleHQgZmlsbD0iIzAwMDAwMCIgZm9udC1mYW1pbHk9InNhbnMtc2VyaWYiIGZvbnQtc2l6ZT0iMTQiIGxlbmd0aEFkanVzdD0ic3BhY2luZyIgdGV4dExlbmd0aD0iMzI2IiB4PSIxMzI3LjUiIHk9IjI2Mi4yMDMxIj5TZXRQb3NzaWJsZU51bWJlcnMobWFpbkNsdXN0ZXI6Q2x1c3RlcikgOiB2b2lkPC90ZXh0PjxlbGxpcHNlIGN4PSIxMzE4LjUiIGN5PSIyNzIuOTQ1MyIgZmlsbD0iIzg0QkU4NCIgcng9IjMiIHJ5PSIzIiBzdHlsZT0ic3Ryb2tlOiMwMzgwNDg7c3Ryb2tlLXdpZHRoOjEuMDsiLz48dGV4dCBmaWxsPSIjMDAwMDAwIiBmb250LWZhbWlseT0ic2Fucy1zZXJpZiIgZm9udC1zaXplPSIxNCIgbGVuZ3RoQWRqdXN0PSJzcGFjaW5nIiB0ZXh0TGVuZ3RoPSIyMzUiIHg9IjEzMjcuNSIgeT0iMjc3LjE4NzUiPiYjMTcxO3ZpcnR1YWwmIzE4NzsgQ3JlYXRlQ2x1c3RlcnMoKSA6IHZvaWQ8L3RleHQ+PC9nPjwhLS1jbGFzcyBJQnVpbGRlci0tPjxnIGlkPSJlbGVtX0lCdWlsZGVyIj48cmVjdCBjb2RlTGluZT0iMTAiIGZpbGw9IiNGMUYxRjEiIGhlaWdodD0iMTA3LjkzNzUiIGlkPSJJQnVpbGRlciIgcng9IjIuNSIgcnk9IjIuNSIgc3R5bGU9InN0cm9rZTojMTgxODE4O3N0cm9rZS13aWR0aDowLjU7IiB3aWR0aD0iMzUyIiB4PSIxMzA3LjUiIHk9IjciLz48ZWxsaXBzZSBjeD0iMTQ1MS4yNSIgY3k9IjIzIiBmaWxsPSIjQjRBN0U1IiByeD0iMTEiIHJ5PSIxMSIgc3R5bGU9InN0cm9rZTojMTgxODE4O3N0cm9rZS13aWR0aDoxLjA7Ii8+PHBhdGggZD0iTTE0NTQuMzc1LDI5IEwxNDU0LjM3NSwyNy4yNSBMMTQ1Mi4yNSwyNy4yNSBRMTQ1Mi4yNSwyNy4yNSAxNDUyLjI1LDE5LjQzNzUgTDE0NTQuMzc1LDE5LjQzNzUgTDE0NTQuMzc1LDE3LjY4NzUgTDE0NDguMzc1LDE3LjY4NzUgTDE0NDguMzc1LDE5LjQzNzUgTDE0NTAuNSwxOS40Mzc1IFExNDUwLjUsMTkuNDM3NSAxNDUwLjUsMjcuMjUgTDE0NDguMzc1LDI3LjI1IEwxNDQ4LjM3NSwyOSBMMTQ1NC4zNzUsMjkgWiAiIGZpbGw9IiMwMDAwMDAiLz48dGV4dCBmaWxsPSIjMDAwMDAwIiBmb250LWZhbWlseT0ic2Fucy1zZXJpZiIgZm9udC1zaXplPSIxNCIgZm9udC1zdHlsZT0iaXRhbGljIiBsZW5ndGhBZGp1c3Q9InNwYWNpbmciIHRleHRMZW5ndGg9IjU2IiB4PSIxNDcxLjc1IiB5PSIyOC43NDIyIj5JQnVpbGRlcjwvdGV4dD48bGluZSBzdHlsZT0ic3Ryb2tlOiMxODE4MTg7c3Ryb2tlLXdpZHRoOjAuNTsiIHgxPSIxMzA4LjUiIHgyPSIxNjU4LjUiIHkxPSIzOSIgeTI9IjM5Ii8+PGxpbmUgc3R5bGU9InN0cm9rZTojMTgxODE4O3N0cm9rZS13aWR0aDowLjU7IiB4MT0iMTMwOC41IiB4Mj0iMTY1OC41IiB5MT0iNDciIHkyPSI0NyIvPjxlbGxpcHNlIGN4PSIxMzE4LjUiIGN5PSI1OS45OTIyIiBmaWxsPSIjODRCRTg0IiByeD0iMyIgcnk9IjMiIHN0eWxlPSJzdHJva2U6IzAzODA0ODtzdHJva2Utd2lkdGg6MS4wOyIvPjx0ZXh0IGZpbGw9IiMwMDAwMDAiIGZvbnQtZmFtaWx5PSJzYW5zLXNlcmlmIiBmb250LXNpemU9IjE0IiBmb250LXN0eWxlPSJpdGFsaWMiIGxlbmd0aEFkanVzdD0ic3BhY2luZyIgdGV4dExlbmd0aD0iMTYzIiB4PSIxMzI3LjUiIHk9IjY0LjIzNDQiPkNyZWF0ZUNsdXN0ZXJzKCkgOiB2b2lkPC90ZXh0PjxlbGxpcHNlIGN4PSIxMzE4LjUiIGN5PSI3NC45NzY2IiBmaWxsPSIjODRCRTg0IiByeD0iMyIgcnk9IjMiIHN0eWxlPSJzdHJva2U6IzAzODA0ODtzdHJva2Utd2lkdGg6MS4wOyIvPjx0ZXh0IGZpbGw9IiMwMDAwMDAiIGZvbnQtZmFtaWx5PSJzYW5zLXNlcmlmIiBmb250LXNpemU9IjE0IiBmb250LXN0eWxlPSJpdGFsaWMiIGxlbmd0aEFkanVzdD0ic3BhY2luZyIgdGV4dExlbmd0aD0iMjE5IiB4PSIxMzI3LjUiIHk9Ijc5LjIxODgiPkNyZWF0ZUdyaWQoaW5wdXQ6c3RyaW5nKSA6IHZvaWQ8L3RleHQ+PGVsbGlwc2UgY3g9IjEzMTguNSIgY3k9Ijg5Ljk2MDkiIGZpbGw9IiM4NEJFODQiIHJ4PSIzIiByeT0iMyIgc3R5bGU9InN0cm9rZTojMDM4MDQ4O3N0cm9rZS13aWR0aDoxLjA7Ii8+PHRleHQgZmlsbD0iIzAwMDAwMCIgZm9udC1mYW1pbHk9InNhbnMtc2VyaWYiIGZvbnQtc2l6ZT0iMTQiIGxlbmd0aEFkanVzdD0ic3BhY2luZyIgdGV4dExlbmd0aD0iMzI2IiB4PSIxMzI3LjUiIHk9Ijk0LjIwMzEiPlNldFBvc3NpYmxlTnVtYmVycyhtYWluQ2x1c3RlcjpDbHVzdGVyKSA6IHZvaWQ8L3RleHQ+PGVsbGlwc2UgY3g9IjEzMTguNSIgY3k9IjEwNC45NDUzIiBmaWxsPSIjODRCRTg0IiByeD0iMyIgcnk9IjMiIHN0eWxlPSJzdHJva2U6IzAzODA0ODtzdHJva2Utd2lkdGg6MS4wOyIvPjx0ZXh0IGZpbGw9IiMwMDAwMDAiIGZvbnQtZmFtaWx5PSJzYW5zLXNlcmlmIiBmb250LXNpemU9IjE0IiBsZW5ndGhBZGp1c3Q9InNwYWNpbmciIHRleHRMZW5ndGg9IjE0MiIgeD0iMTMyNy41IiB5PSIxMDkuMTg3NSI+R2V0UHV6emxlKCkgOiBQdXp6bGU8L3RleHQ+PC9nPjwhLS1jbGFzcyBKaWdzYXdCdWlsZGVyLS0+PGcgaWQ9ImVsZW1fSmlnc2F3QnVpbGRlciI+PHJlY3QgY29kZUxpbmU9IjE4IiBmaWxsPSIjRjFGMUYxIiBoZWlnaHQ9IjkyLjk1MzEiIGlkPSJKaWdzYXdCdWlsZGVyIiByeD0iMi41IiByeT0iMi41IiBzdHlsZT0ic3Ryb2tlOiMxODE4MTg7c3Ryb2tlLXdpZHRoOjAuNTsiIHdpZHRoPSIzMzgiIHg9IjExMjguNSIgeT0iMzUwLjUiLz48ZWxsaXBzZSBjeD0iMTI0Ni43NSIgY3k9IjM2Ni41IiBmaWxsPSIjQUREMUIyIiByeD0iMTEiIHJ5PSIxMSIgc3R5bGU9InN0cm9rZTojMTgxODE4O3N0cm9rZS13aWR0aDoxLjA7Ii8+PHBhdGggZD0iTTEyNDQuMzc1LDM3MC43NSBMMTI0NC4zNzUsMzcyLjUgTDEyNDkuMzEyNSwzNzIuNSBMMTI0OS4zMTI1LDM3MC43NSBMMTI0NC4zNzUsMzcwLjc1IFogTTEyNDUuMDYyNSwzNzEuNDM3NSBRMTI0NS4wNjI1LDM3MS40Mzc1IDEyNDUuMDYyNSwzNjIuMjUgTDEyNDMuMzEyNSwzNjIuMjUgUTEyNDMuMzEyNSwzNjIuMjUgMTI0My4zMTI1LDM3MS40Mzc1IEwxMjQ1LjA2MjUsMzcxLjQzNzUgWiBNMTI0OC42MjUsMzcxLjQzNzUgTDEyNTAuMzc1LDM3MS40Mzc1IFExMjUwLjM3NSwzNzEuNDM3NSAxMjUwLjM3NSwzNjguNjI1IEwxMjQ4LjYyNSwzNjguNjI1IFExMjQ4LjYyNSwzNjguNjI1IDEyNDguNjI1LDM3MS40Mzc1IFogTTEyNDguNjI1LDM2Mi4yNSBRMTI0OC42MjUsMzYyLjI1IDEyNDguNjI1LDM2NS4wNjI1IEwxMjUwLjM3NSwzNjUuMDYyNSBRMTI1MC4zNzUsMzY1LjA2MjUgMTI1MC4zNzUsMzYyLjI1IEwxMjQ4LjYyNSwzNjIuMjUgWiBNMTI0NC4zNzUsMzYyLjkzNzUgTDEyNDkuMzEyNSwzNjIuOTM3NSBMMTI0OS4zMTI1LDM2MS4xODc1IEwxMjQ0LjM3NSwzNjEuMTg3NSBMMTI0NC4zNzUsMzYyLjkzNzUgWiAiIGZpbGw9IiMwMDAwMDAiLz48dGV4dCBmaWxsPSIjMDAwMDAwIiBmb250LWZhbWlseT0ic2Fucy1zZXJpZiIgZm9udC1zaXplPSIxNCIgbGVuZ3RoQWRqdXN0PSJzcGFjaW5nIiB0ZXh0TGVuZ3RoPSI5MyIgeD0iMTI2Ny4yNSIgeT0iMzcyLjI0MjIiPkppZ3Nhd0J1aWxkZXI8L3RleHQ+PGxpbmUgc3R5bGU9InN0cm9rZTojMTgxODE4O3N0cm9rZS13aWR0aDowLjU7IiB4MT0iMTEyOS41IiB4Mj0iMTQ2NS41IiB5MT0iMzgyLjUiIHkyPSIzODIuNSIvPjxsaW5lIHN0eWxlPSJzdHJva2U6IzE4MTgxODtzdHJva2Utd2lkdGg6MC41OyIgeDE9IjExMjkuNSIgeDI9IjE0NjUuNSIgeTE9IjM5MC41IiB5Mj0iMzkwLjUiLz48ZWxsaXBzZSBjeD0iMTEzOS41IiBjeT0iNDAzLjQ5MjIiIGZpbGw9IiM4NEJFODQiIHJ4PSIzIiByeT0iMyIgc3R5bGU9InN0cm9rZTojMDM4MDQ4O3N0cm9rZS13aWR0aDoxLjA7Ii8+PHRleHQgZmlsbD0iIzAwMDAwMCIgZm9udC1mYW1pbHk9InNhbnMtc2VyaWYiIGZvbnQtc2l6ZT0iMTQiIGxlbmd0aEFkanVzdD0ic3BhY2luZyIgdGV4dExlbmd0aD0iMjcwIiB4PSIxMTQ4LjUiIHk9IjQwNy43MzQ0Ij5KaWdzYXdCdWlsZGVyKGZpbGVJbmZvOlN1ZG9rdUZpbGVJbmZvKTwvdGV4dD48dGV4dCBmaWxsPSIjMDAwMDAwIiBmb250LWZhbWlseT0ic2Fucy1zZXJpZiIgZm9udC1zaXplPSIxNCIgbGVuZ3RoQWRqdXN0PSJzcGFjaW5nIiB0ZXh0TGVuZ3RoPSIzMTIiIHg9IjExNDguNSIgeT0iNDIyLjcxODgiPiYjMTcxO292ZXJyaWRlJiMxODc7ICsgQ3JlYXRlR3JpZChpbnB1dDpzdHJpbmcpIDogdm9pZDwvdGV4dD48dGV4dCBmaWxsPSIjMDAwMDAwIiBmb250LWZhbWlseT0ic2Fucy1zZXJpZiIgZm9udC1zaXplPSIxNCIgbGVuZ3RoQWRqdXN0PSJzcGFjaW5nIiB0ZXh0TGVuZ3RoPSIyNTYiIHg9IjExNDguNSIgeT0iNDM3LjcwMzEiPiYjMTcxO292ZXJyaWRlJiMxODc7ICsgQ3JlYXRlQ2x1c3RlcnMoKSA6IHZvaWQ8L3RleHQ+PC9nPjwhLS1jbGFzcyBTYW11cmFpQnVpbGRlci0tPjxnIGlkPSJlbGVtX1NhbXVyYWlCdWlsZGVyIj48cmVjdCBjb2RlTGluZT0iMjYiIGZpbGw9IiNGMUYxRjEiIGhlaWdodD0iOTIuOTUzMSIgaWQ9IlNhbXVyYWlCdWlsZGVyIiByeD0iMi41IiByeT0iMi41IiBzdHlsZT0ic3Ryb2tlOiMxODE4MTg7c3Ryb2tlLXdpZHRoOjAuNTsiIHdpZHRoPSIzMzgiIHg9IjE1MDEuNSIgeT0iMzUwLjUiLz48ZWxsaXBzZSBjeD0iMTYxNi43NSIgY3k9IjM2Ni41IiBmaWxsPSIjQUREMUIyIiByeD0iMTEiIHJ5PSIxMSIgc3R5bGU9InN0cm9rZTojMTgxODE4O3N0cm9rZS13aWR0aDoxLjA7Ii8+PHBhdGggZD0iTTE2MTQuMzc1LDM3MC43NSBMMTYxNC4zNzUsMzcyLjUgTDE2MTkuMzEyNSwzNzIuNSBMMTYxOS4zMTI1LDM3MC43NSBMMTYxNC4zNzUsMzcwLjc1IFogTTE2MTUuMDYyNSwzNzEuNDM3NSBRMTYxNS4wNjI1LDM3MS40Mzc1IDE2MTUuMDYyNSwzNjIuMjUgTDE2MTMuMzEyNSwzNjIuMjUgUTE2MTMuMzEyNSwzNjIuMjUgMTYxMy4zMTI1LDM3MS40Mzc1IEwxNjE1LjA2MjUsMzcxLjQzNzUgWiBNMTYxOC42MjUsMzcxLjQzNzUgTDE2MjAuMzc1LDM3MS40Mzc1IFExNjIwLjM3NSwzNzEuNDM3NSAxNjIwLjM3NSwzNjguNjI1IEwxNjE4LjYyNSwzNjguNjI1IFExNjE4LjYyNSwzNjguNjI1IDE2MTguNjI1LDM3MS40Mzc1IFogTTE2MTguNjI1LDM2Mi4yNSBRMTYxOC42MjUsMzYyLjI1IDE2MTguNjI1LDM2NS4wNjI1IEwxNjIwLjM3NSwzNjUuMDYyNSBRMTYyMC4zNzUsMzY1LjA2MjUgMTYyMC4zNzUsMzYyLjI1IEwxNjE4LjYyNSwzNjIuMjUgWiBNMTYxNC4zNzUsMzYyLjkzNzUgTDE2MTkuMzEyNSwzNjIuOTM3NSBMMTYxOS4zMTI1LDM2MS4xODc1IEwxNjE0LjM3NSwzNjEuMTg3NSBMMTYxNC4zNzUsMzYyLjkzNzUgWiAiIGZpbGw9IiMwMDAwMDAiLz48dGV4dCBmaWxsPSIjMDAwMDAwIiBmb250LWZhbWlseT0ic2Fucy1zZXJpZiIgZm9udC1zaXplPSIxNCIgbGVuZ3RoQWRqdXN0PSJzcGFjaW5nIiB0ZXh0TGVuZ3RoPSI5OSIgeD0iMTYzNy4yNSIgeT0iMzcyLjI0MjIiPlNhbXVyYWlCdWlsZGVyPC90ZXh0PjxsaW5lIHN0eWxlPSJzdHJva2U6IzE4MTgxODtzdHJva2Utd2lkdGg6MC41OyIgeDE9IjE1MDIuNSIgeDI9IjE4MzguNSIgeTE9IjM4Mi41IiB5Mj0iMzgyLjUiLz48bGluZSBzdHlsZT0ic3Ryb2tlOiMxODE4MTg7c3Ryb2tlLXdpZHRoOjAuNTsiIHgxPSIxNTAyLjUiIHgyPSIxODM4LjUiIHkxPSIzOTAuNSIgeTI9IjM5MC41Ii8+PGVsbGlwc2UgY3g9IjE1MTIuNSIgY3k9IjQwMy40OTIyIiBmaWxsPSIjODRCRTg0IiByeD0iMyIgcnk9IjMiIHN0eWxlPSJzdHJva2U6IzAzODA0ODtzdHJva2Utd2lkdGg6MS4wOyIvPjx0ZXh0IGZpbGw9IiMwMDAwMDAiIGZvbnQtZmFtaWx5PSJzYW5zLXNlcmlmIiBmb250LXNpemU9IjE0IiBsZW5ndGhBZGp1c3Q9InNwYWNpbmciIHRleHRMZW5ndGg9IjI3NiIgeD0iMTUyMS41IiB5PSI0MDcuNzM0NCI+U2FtdXJhaUJ1aWxkZXIoZmlsZUluZm86U3Vkb2t1RmlsZUluZm8pPC90ZXh0Pjx0ZXh0IGZpbGw9IiMwMDAwMDAiIGZvbnQtZmFtaWx5PSJzYW5zLXNlcmlmIiBmb250LXNpemU9IjE0IiBsZW5ndGhBZGp1c3Q9InNwYWNpbmciIHRleHRMZW5ndGg9IjMxMiIgeD0iMTUyMS41IiB5PSI0MjIuNzE4OCI+JiMxNzE7b3ZlcnJpZGUmIzE4NzsgKyBDcmVhdGVHcmlkKGlucHV0OnN0cmluZykgOiB2b2lkPC90ZXh0Pjx0ZXh0IGZpbGw9IiMwMDAwMDAiIGZvbnQtZmFtaWx5PSJzYW5zLXNlcmlmIiBmb250LXNpemU9IjE0IiBsZW5ndGhBZGp1c3Q9InNwYWNpbmciIHRleHRMZW5ndGg9IjI1NiIgeD0iMTUyMS41IiB5PSI0MzcuNzAzMSI+JiMxNzE7b3ZlcnJpZGUmIzE4NzsgKyBDcmVhdGVDbHVzdGVycygpIDogdm9pZDwvdGV4dD48L2c+PCEtLWNsYXNzIENlbGwtLT48ZyBpZD0iZWxlbV9DZWxsIj48cmVjdCBjb2RlTGluZT0iMzQiIGZpbGw9IiNGMUYxRjEiIGhlaWdodD0iNjIuOTg0NCIgaWQ9IkNlbGwiIHJ4PSIyLjUiIHJ5PSIyLjUiIHN0eWxlPSJzdHJva2U6IzE4MTgxODtzdHJva2Utd2lkdGg6MC41OyIgd2lkdGg9IjI1OSIgeD0iNyIgeT0iMTk3LjUiLz48ZWxsaXBzZSBjeD0iMTE4LjI1IiBjeT0iMjEzLjUiIGZpbGw9IiNBREQxQjIiIHJ4PSIxMSIgcnk9IjExIiBzdHlsZT0ic3Ryb2tlOiMxODE4MTg7c3Ryb2tlLXdpZHRoOjEuMDsiLz48cGF0aCBkPSJNMTE1Ljg3NSwyMTcuNzUgTDExNS44NzUsMjE5LjUgTDEyMC44MTI1LDIxOS41IEwxMjAuODEyNSwyMTcuNzUgTDExNS44NzUsMjE3Ljc1IFogTTExNi41NjI1LDIxOC40Mzc1IFExMTYuNTYyNSwyMTguNDM3NSAxMTYuNTYyNSwyMDkuMjUgTDExNC44MTI1LDIwOS4yNSBRMTE0LjgxMjUsMjA5LjI1IDExNC44MTI1LDIxOC40Mzc1IEwxMTYuNTYyNSwyMTguNDM3NSBaIE0xMjAuMTI1LDIxOC40Mzc1IEwxMjEuODc1LDIxOC40Mzc1IFExMjEuODc1LDIxOC40Mzc1IDEyMS44NzUsMjE1LjYyNSBMMTIwLjEyNSwyMTUuNjI1IFExMjAuMTI1LDIxNS42MjUgMTIwLjEyNSwyMTguNDM3NSBaIE0xMjAuMTI1LDIwOS4yNSBRMTIwLjEyNSwyMDkuMjUgMTIwLjEyNSwyMTIuMDYyNSBMMTIxLjg3NSwyMTIuMDYyNSBRMTIxLjg3NSwyMTIuMDYyNSAxMjEuODc1LDIwOS4yNSBMMTIwLjEyNSwyMDkuMjUgWiBNMTE1Ljg3NSwyMDkuOTM3NSBMMTIwLjgxMjUsMjA5LjkzNzUgTDEyMC44MTI1LDIwOC4xODc1IEwxMTUuODc1LDIwOC4xODc1IEwxMTUuODc1LDIwOS45Mzc1IFogIiBmaWxsPSIjMDAwMDAwIi8+PHRleHQgZmlsbD0iIzAwMDAwMCIgZm9udC1mYW1pbHk9InNhbnMtc2VyaWYiIGZvbnQtc2l6ZT0iMTQiIGxlbmd0aEFkanVzdD0ic3BhY2luZyIgdGV4dExlbmd0aD0iMjgiIHg9IjEzOC43NSIgeT0iMjE5LjI0MjIiPkNlbGw8L3RleHQ+PGxpbmUgc3R5bGU9InN0cm9rZTojMTgxODE4O3N0cm9rZS13aWR0aDowLjU7IiB4MT0iOCIgeDI9IjI2NSIgeTE9IjIyOS41IiB5Mj0iMjI5LjUiLz48bGluZSBzdHlsZT0ic3Ryb2tlOiMxODE4MTg7c3Ryb2tlLXdpZHRoOjAuNTsiIHgxPSI4IiB4Mj0iMjY1IiB5MT0iMjM3LjUiIHkyPSIyMzcuNSIvPjxlbGxpcHNlIGN4PSIxOCIgY3k9IjI1MC40OTIyIiBmaWxsPSIjODRCRTg0IiByeD0iMyIgcnk9IjMiIHN0eWxlPSJzdHJva2U6IzAzODA0ODtzdHJva2Utd2lkdGg6MS4wOyIvPjx0ZXh0IGZpbGw9IiMwMDAwMDAiIGZvbnQtZmFtaWx5PSJzYW5zLXNlcmlmIiBmb250LXNpemU9IjE0IiBsZW5ndGhBZGp1c3Q9InNwYWNpbmciIHRleHRMZW5ndGg9IjIzMyIgeD0iMjciIHk9IjI1NC43MzQ0Ij5DZWxsKGNvb3JkOkNvb3JkLCBzdGFydFZhbHVlOmludCk8L3RleHQ+PC9nPjwhLS1jbGFzcyBJQ29tcG9uZW50LS0+PGcgaWQ9ImVsZW1fSUNvbXBvbmVudCI+PHJlY3QgY29kZUxpbmU9IjU1IiBmaWxsPSIjRjFGMUYxIiBoZWlnaHQ9IjQ4IiBpZD0iSUNvbXBvbmVudCIgcng9IjIuNSIgcnk9IjIuNSIgc3R5bGU9InN0cm9rZTojMTgxODE4O3N0cm9rZS13aWR0aDowLjU7IiB3aWR0aD0iMTAzIiB4PSIxNjciIHk9IjM3Ii8+PGVsbGlwc2UgY3g9IjE4MiIgY3k9IjUzIiBmaWxsPSIjQjRBN0U1IiByeD0iMTEiIHJ5PSIxMSIgc3R5bGU9InN0cm9rZTojMTgxODE4O3N0cm9rZS13aWR0aDoxLjA7Ii8+PHBhdGggZD0iTTE4NS4xMjUsNTkgTDE4NS4xMjUsNTcuMjUgTDE4Myw1Ny4yNSBRMTgzLDU3LjI1IDE4Myw0OS40Mzc1IEwxODUuMTI1LDQ5LjQzNzUgTDE4NS4xMjUsNDcuNjg3NSBMMTc5LjEyNSw0Ny42ODc1IEwxNzkuMTI1LDQ5LjQzNzUgTDE4MS4yNSw0OS40Mzc1IFExODEuMjUsNDkuNDM3NSAxODEuMjUsNTcuMjUgTDE3OS4xMjUsNTcuMjUgTDE3OS4xMjUsNTkgTDE4NS4xMjUsNTkgWiAiIGZpbGw9IiMwMDAwMDAiLz48dGV4dCBmaWxsPSIjMDAwMDAwIiBmb250LWZhbWlseT0ic2Fucy1zZXJpZiIgZm9udC1zaXplPSIxNCIgZm9udC1zdHlsZT0iaXRhbGljIiBsZW5ndGhBZGp1c3Q9InNwYWNpbmciIHRleHRMZW5ndGg9IjcxIiB4PSIxOTYiIHk9IjU4Ljc0MjIiPklDb21wb25lbnQ8L3RleHQ+PGxpbmUgc3R5bGU9InN0cm9rZTojMTgxODE4O3N0cm9rZS13aWR0aDowLjU7IiB4MT0iMTY4IiB4Mj0iMjY5IiB5MT0iNjkiIHkyPSI2OSIvPjxsaW5lIHN0eWxlPSJzdHJva2U6IzE4MTgxODtzdHJva2Utd2lkdGg6MC41OyIgeDE9IjE2OCIgeDI9IjI2OSIgeTE9Ijc3IiB5Mj0iNzciLz48L2c+PCEtLWNsYXNzIENvb3JkLS0+PGcgaWQ9ImVsZW1fQ29vcmQiPjxyZWN0IGNvZGVMaW5lPSI0OCIgZmlsbD0iI0YxRjFGMSIgaGVpZ2h0PSI5Mi45NTMxIiBpZD0iQ29vcmQiIHJ4PSIyLjUiIHJ5PSIyLjUiIHN0eWxlPSJzdHJva2U6IzE4MTgxODtzdHJva2Utd2lkdGg6MC41OyIgd2lkdGg9IjE2MyIgeD0iNTUiIHk9IjUzMy41Ii8+PGVsbGlwc2UgY3g9IjExNC43NSIgY3k9IjU0OS41IiBmaWxsPSIjQUREMUIyIiByeD0iMTEiIHJ5PSIxMSIgc3R5bGU9InN0cm9rZTojMTgxODE4O3N0cm9rZS13aWR0aDoxLjA7Ii8+PHBhdGggZD0iTTExMi4zNzUsNTUzLjc1IEwxMTIuMzc1LDU1NS41IEwxMTcuMzEyNSw1NTUuNSBMMTE3LjMxMjUsNTUzLjc1IEwxMTIuMzc1LDU1My43NSBaIE0xMTMuMDYyNSw1NTQuNDM3NSBRMTEzLjA2MjUsNTU0LjQzNzUgMTEzLjA2MjUsNTQ1LjI1IEwxMTEuMzEyNSw1NDUuMjUgUTExMS4zMTI1LDU0NS4yNSAxMTEuMzEyNSw1NTQuNDM3NSBMMTEzLjA2MjUsNTU0LjQzNzUgWiBNMTE2LjYyNSw1NTQuNDM3NSBMMTE4LjM3NSw1NTQuNDM3NSBRMTE4LjM3NSw1NTQuNDM3NSAxMTguMzc1LDU1MS42MjUgTDExNi42MjUsNTUxLjYyNSBRMTE2LjYyNSw1NTEuNjI1IDExNi42MjUsNTU0LjQzNzUgWiBNMTE2LjYyNSw1NDUuMjUgUTExNi42MjUsNTQ1LjI1IDExNi42MjUsNTQ4LjA2MjUgTDExOC4zNzUsNTQ4LjA2MjUgUTExOC4zNzUsNTQ4LjA2MjUgMTE4LjM3NSw1NDUuMjUgTDExNi42MjUsNTQ1LjI1IFogTTExMi4zNzUsNTQ1LjkzNzUgTDExNy4zMTI1LDU0NS45Mzc1IEwxMTcuMzEyNSw1NDQuMTg3NSBMMTEyLjM3NSw1NDQuMTg3NSBMMTEyLjM3NSw1NDUuOTM3NSBaICIgZmlsbD0iIzAwMDAwMCIvPjx0ZXh0IGZpbGw9IiMwMDAwMDAiIGZvbnQtZmFtaWx5PSJzYW5zLXNlcmlmIiBmb250LXNpemU9IjE0IiBsZW5ndGhBZGp1c3Q9InNwYWNpbmciIHRleHRMZW5ndGg9IjM1IiB4PSIxMzUuMjUiIHk9IjU1NS4yNDIyIj5Db29yZDwvdGV4dD48bGluZSBzdHlsZT0ic3Ryb2tlOiMxODE4MTg7c3Ryb2tlLXdpZHRoOjAuNTsiIHgxPSI1NiIgeDI9IjIxNyIgeTE9IjU2NS41IiB5Mj0iNTY1LjUiLz48ZWxsaXBzZSBjeD0iNjYiIGN5PSI1NzguNDkyMiIgZmlsbD0ibm9uZSIgcng9IjMiIHJ5PSIzIiBzdHlsZT0ic3Ryb2tlOiMwMzgwNDg7c3Ryb2tlLXdpZHRoOjEuMDsiLz48dGV4dCBmaWxsPSIjMDAwMDAwIiBmb250LWZhbWlseT0ic2Fucy1zZXJpZiIgZm9udC1zaXplPSIxNCIgbGVuZ3RoQWRqdXN0PSJzcGFjaW5nIiB0ZXh0TGVuZ3RoPSIxMzciIHg9Ijc1IiB5PSI1ODIuNzM0NCI+WCA6IGludCAmIzE3MTtnZXQmIzE4NzsgJiMxNzE7c2V0JiMxODc7PC90ZXh0PjxlbGxpcHNlIGN4PSI2NiIgY3k9IjU5My40NzY2IiBmaWxsPSJub25lIiByeD0iMyIgcnk9IjMiIHN0eWxlPSJzdHJva2U6IzAzODA0ODtzdHJva2Utd2lkdGg6MS4wOyIvPjx0ZXh0IGZpbGw9IiMwMDAwMDAiIGZvbnQtZmFtaWx5PSJzYW5zLXNlcmlmIiBmb250LXNpemU9IjE0IiBsZW5ndGhBZGp1c3Q9InNwYWNpbmciIHRleHRMZW5ndGg9IjEzNyIgeD0iNzUiIHk9IjU5Ny43MTg4Ij5ZIDogaW50ICYjMTcxO2dldCYjMTg3OyAmIzE3MTtzZXQmIzE4Nzs8L3RleHQ+PGxpbmUgc3R5bGU9InN0cm9rZTojMTgxODE4O3N0cm9rZS13aWR0aDowLjU7IiB4MT0iNTYiIHgyPSIyMTciIHkxPSI2MDMuNDY4OCIgeTI9IjYwMy40Njg4Ii8+PGVsbGlwc2UgY3g9IjY2IiBjeT0iNjE2LjQ2MDkiIGZpbGw9IiM4NEJFODQiIHJ4PSIzIiByeT0iMyIgc3R5bGU9InN0cm9rZTojMDM4MDQ4O3N0cm9rZS13aWR0aDoxLjA7Ii8+PHRleHQgZmlsbD0iIzAwMDAwMCIgZm9udC1mYW1pbHk9InNhbnMtc2VyaWYiIGZvbnQtc2l6ZT0iMTQiIGxlbmd0aEFkanVzdD0ic3BhY2luZyIgdGV4dExlbmd0aD0iMTM1IiB4PSI3NSIgeT0iNjIwLjcwMzEiPkNvb3JkKHg6aW50LCB5OmludCk8L3RleHQ+PC9nPjwhLS1jbGFzcyBDbHVzdGVyLS0+PGcgaWQ9ImVsZW1fQ2x1c3RlciI+PHJlY3QgY29kZUxpbmU9IjQxIiBmaWxsPSIjRjFGMUYxIiBoZWlnaHQ9IjYyLjk4NDQiIGlkPSJDbHVzdGVyIiByeD0iMi41IiByeT0iMi41IiBzdHlsZT0ic3Ryb2tlOiMxODE4MTg7c3Ryb2tlLXdpZHRoOjAuNTsiIHdpZHRoPSI5MSIgeD0iMzAxIiB5PSIxOTcuNSIvPjxlbGxpcHNlIGN4PSIzMjAuNSIgY3k9IjIxMy41IiBmaWxsPSIjQUREMUIyIiByeD0iMTEiIHJ5PSIxMSIgc3R5bGU9InN0cm9rZTojMTgxODE4O3N0cm9rZS13aWR0aDoxLjA7Ii8+PHBhdGggZD0iTTMxOC4xMjUsMjE3Ljc1IEwzMTguMTI1LDIxOS41IEwzMjMuMDYyNSwyMTkuNSBMMzIzLjA2MjUsMjE3Ljc1IEwzMTguMTI1LDIxNy43NSBaIE0zMTguODEyNSwyMTguNDM3NSBRMzE4LjgxMjUsMjE4LjQzNzUgMzE4LjgxMjUsMjA5LjI1IEwzMTcuMDYyNSwyMDkuMjUgUTMxNy4wNjI1LDIwOS4yNSAzMTcuMDYyNSwyMTguNDM3NSBMMzE4LjgxMjUsMjE4LjQzNzUgWiBNMzIyLjM3NSwyMTguNDM3NSBMMzI0LjEyNSwyMTguNDM3NSBRMzI0LjEyNSwyMTguNDM3NSAzMjQuMTI1LDIxNS42MjUgTDMyMi4zNzUsMjE1LjYyNSBRMzIyLjM3NSwyMTUuNjI1IDMyMi4zNzUsMjE4LjQzNzUgWiBNMzIyLjM3NSwyMDkuMjUgUTMyMi4zNzUsMjA5LjI1IDMyMi4zNzUsMjEyLjA2MjUgTDMyNC4xMjUsMjEyLjA2MjUgUTMyNC4xMjUsMjEyLjA2MjUgMzI0LjEyNSwyMDkuMjUgTDMyMi4zNzUsMjA5LjI1IFogTTMxOC4xMjUsMjA5LjkzNzUgTDMyMy4wNjI1LDIwOS45Mzc1IEwzMjMuMDYyNSwyMDguMTg3NSBMMzE4LjEyNSwyMDguMTg3NSBMMzE4LjEyNSwyMDkuOTM3NSBaICIgZmlsbD0iIzAwMDAwMCIvPjx0ZXh0IGZpbGw9IiMwMDAwMDAiIGZvbnQtZmFtaWx5PSJzYW5zLXNlcmlmIiBmb250LXNpemU9IjE0IiBsZW5ndGhBZGp1c3Q9InNwYWNpbmciIHRleHRMZW5ndGg9IjQ5IiB4PSIzMzUuNSIgeT0iMjE5LjI0MjIiPkNsdXN0ZXI8L3RleHQ+PGxpbmUgc3R5bGU9InN0cm9rZTojMTgxODE4O3N0cm9rZS13aWR0aDowLjU7IiB4MT0iMzAyIiB4Mj0iMzkxIiB5MT0iMjI5LjUiIHkyPSIyMjkuNSIvPjxsaW5lIHN0eWxlPSJzdHJva2U6IzE4MTgxODtzdHJva2Utd2lkdGg6MC41OyIgeDE9IjMwMiIgeDI9IjM5MSIgeTE9IjIzNy41IiB5Mj0iMjM3LjUiLz48ZWxsaXBzZSBjeD0iMzEyIiBjeT0iMjUwLjQ5MjIiIGZpbGw9IiM4NEJFODQiIHJ4PSIzIiByeT0iMyIgc3R5bGU9InN0cm9rZTojMDM4MDQ4O3N0cm9rZS13aWR0aDoxLjA7Ii8+PHRleHQgZmlsbD0iIzAwMDAwMCIgZm9udC1mYW1pbHk9InNhbnMtc2VyaWYiIGZvbnQtc2l6ZT0iMTQiIGxlbmd0aEFkanVzdD0ic3BhY2luZyIgdGV4dExlbmd0aD0iNjUiIHg9IjMyMSIgeT0iMjU0LjczNDQiPkNsdXN0ZXIoKTwvdGV4dD48L2c+PCEtLWNsYXNzIEZpbGVSZWFkZXJGYWN0b3J5LS0+PGcgaWQ9ImVsZW1fRmlsZVJlYWRlckZhY3RvcnkiPjxyZWN0IGNvZGVMaW5lPSI2MCIgZmlsbD0iI0YxRjFGMSIgaGVpZ2h0PSI2Mi45ODQ0IiBpZD0iRmlsZVJlYWRlckZhY3RvcnkiIHJ4PSIyLjUiIHJ5PSIyLjUiIHN0eWxlPSJzdHJva2U6IzE4MTgxODtzdHJva2Utd2lkdGg6MC41OyIgd2lkdGg9IjM2NCIgeD0iMTgyNC41IiB5PSIyOS41Ii8+PGVsbGlwc2UgY3g9IjE5NDIuNzUiIGN5PSI0NS41IiBmaWxsPSIjQUREMUIyIiByeD0iMTEiIHJ5PSIxMSIgc3R5bGU9InN0cm9rZTojMTgxODE4O3N0cm9rZS13aWR0aDoxLjA7Ii8+PHBhdGggZD0iTTE5NDAuMzc1LDQ5Ljc1IEwxOTQwLjM3NSw1MS41IEwxOTQ1LjMxMjUsNTEuNSBMMTk0NS4zMTI1LDQ5Ljc1IEwxOTQwLjM3NSw0OS43NSBaIE0xOTQxLjA2MjUsNTAuNDM3NSBRMTk0MS4wNjI1LDUwLjQzNzUgMTk0MS4wNjI1LDQxLjI1IEwxOTM5LjMxMjUsNDEuMjUgUTE5MzkuMzEyNSw0MS4yNSAxOTM5LjMxMjUsNTAuNDM3NSBMMTk0MS4wNjI1LDUwLjQzNzUgWiBNMTk0NC42MjUsNTAuNDM3NSBMMTk0Ni4zNzUsNTAuNDM3NSBRMTk0Ni4zNzUsNTAuNDM3NSAxOTQ2LjM3NSw0Ny42MjUgTDE5NDQuNjI1LDQ3LjYyNSBRMTk0NC42MjUsNDcuNjI1IDE5NDQuNjI1LDUwLjQzNzUgWiBNMTk0NC42MjUsNDEuMjUgUTE5NDQuNjI1LDQxLjI1IDE5NDQuNjI1LDQ0LjA2MjUgTDE5NDYuMzc1LDQ0LjA2MjUgUTE5NDYuMzc1LDQ0LjA2MjUgMTk0Ni4zNzUsNDEuMjUgTDE5NDQuNjI1LDQxLjI1IFogTTE5NDAuMzc1LDQxLjkzNzUgTDE5NDUuMzEyNSw0MS45Mzc1IEwxOTQ1LjMxMjUsNDAuMTg3NSBMMTk0MC4zNzUsNDAuMTg3NSBMMTk0MC4zNzUsNDEuOTM3NSBaICIgZmlsbD0iIzAwMDAwMCIvPjx0ZXh0IGZpbGw9IiMwMDAwMDAiIGZvbnQtZmFtaWx5PSJzYW5zLXNlcmlmIiBmb250LXNpemU9IjE0IiBsZW5ndGhBZGp1c3Q9InNwYWNpbmciIHRleHRMZW5ndGg9IjExOSIgeD0iMTk2My4yNSIgeT0iNTEuMjQyMiI+RmlsZVJlYWRlckZhY3Rvcnk8L3RleHQ+PGxpbmUgc3R5bGU9InN0cm9rZTojMTgxODE4O3N0cm9rZS13aWR0aDowLjU7IiB4MT0iMTgyNS41IiB4Mj0iMjE4Ny41IiB5MT0iNjEuNSIgeTI9IjYxLjUiLz48bGluZSBzdHlsZT0ic3Ryb2tlOiMxODE4MTg7c3Ryb2tlLXdpZHRoOjAuNTsiIHgxPSIxODI1LjUiIHgyPSIyMTg3LjUiIHkxPSI2OS41IiB5Mj0iNjkuNSIvPjxlbGxpcHNlIGN4PSIxODM1LjUiIGN5PSI4Mi40OTIyIiBmaWxsPSIjODRCRTg0IiByeD0iMyIgcnk9IjMiIHN0eWxlPSJzdHJva2U6IzAzODA0ODtzdHJva2Utd2lkdGg6MS4wOyIvPjx0ZXh0IGZpbGw9IiMwMDAwMDAiIGZvbnQtZmFtaWx5PSJzYW5zLXNlcmlmIiBmb250LXNpemU9IjE0IiBsZW5ndGhBZGp1c3Q9InNwYWNpbmciIHRleHRMZW5ndGg9IjMzOCIgeD0iMTg0NC41IiB5PSI4Ni43MzQ0Ij5DcmVhdGVGaWxlSW5mbyhmaWxlUGF0aDpzdHJpbmcpIDogU3Vkb2t1RmlsZUluZm88L3RleHQ+PC9nPjwhLS1jbGFzcyBQdXp6bGUtLT48ZyBpZD0iZWxlbV9QdXp6bGUiPjxyZWN0IGNvZGVMaW5lPSI2NSIgZmlsbD0iI0YxRjFGMSIgaGVpZ2h0PSI2Mi45ODQ0IiBpZD0iUHV6emxlIiByeD0iMi41IiByeT0iMi41IiBzdHlsZT0ic3Ryb2tlOiMxODE4MTg7c3Ryb2tlLXdpZHRoOjAuNTsiIHdpZHRoPSIyNDUiIHg9IjI2NSIgeT0iMzY1LjUiLz48ZWxsaXBzZSBjeD0iMzYyLjI1IiBjeT0iMzgxLjUiIGZpbGw9IiNBREQxQjIiIHJ4PSIxMSIgcnk9IjExIiBzdHlsZT0ic3Ryb2tlOiMxODE4MTg7c3Ryb2tlLXdpZHRoOjEuMDsiLz48cGF0aCBkPSJNMzU5Ljg3NSwzODUuNzUgTDM1OS44NzUsMzg3LjUgTDM2NC44MTI1LDM4Ny41IEwzNjQuODEyNSwzODUuNzUgTDM1OS44NzUsMzg1Ljc1IFogTTM2MC41NjI1LDM4Ni40Mzc1IFEzNjAuNTYyNSwzODYuNDM3NSAzNjAuNTYyNSwzNzcuMjUgTDM1OC44MTI1LDM3Ny4yNSBRMzU4LjgxMjUsMzc3LjI1IDM1OC44MTI1LDM4Ni40Mzc1IEwzNjAuNTYyNSwzODYuNDM3NSBaIE0zNjQuMTI1LDM4Ni40Mzc1IEwzNjUuODc1LDM4Ni40Mzc1IFEzNjUuODc1LDM4Ni40Mzc1IDM2NS44NzUsMzgzLjYyNSBMMzY0LjEyNSwzODMuNjI1IFEzNjQuMTI1LDM4My42MjUgMzY0LjEyNSwzODYuNDM3NSBaIE0zNjQuMTI1LDM3Ny4yNSBRMzY0LjEyNSwzNzcuMjUgMzY0LjEyNSwzODAuMDYyNSBMMzY1Ljg3NSwzODAuMDYyNSBRMzY1Ljg3NSwzODAuMDYyNSAzNjUuODc1LDM3Ny4yNSBMMzY0LjEyNSwzNzcuMjUgWiBNMzU5Ljg3NSwzNzcuOTM3NSBMMzY0LjgxMjUsMzc3LjkzNzUgTDM2NC44MTI1LDM3Ni4xODc1IEwzNTkuODc1LDM3Ni4xODc1IEwzNTkuODc1LDM3Ny45Mzc1IFogIiBmaWxsPSIjMDAwMDAwIi8+PHRleHQgZmlsbD0iIzAwMDAwMCIgZm9udC1mYW1pbHk9InNhbnMtc2VyaWYiIGZvbnQtc2l6ZT0iMTQiIGxlbmd0aEFkanVzdD0ic3BhY2luZyIgdGV4dExlbmd0aD0iNDIiIHg9IjM4Mi43NSIgeT0iMzg3LjI0MjIiPlB1enpsZTwvdGV4dD48bGluZSBzdHlsZT0ic3Ryb2tlOiMxODE4MTg7c3Ryb2tlLXdpZHRoOjAuNTsiIHgxPSIyNjYiIHgyPSI1MDkiIHkxPSIzOTcuNSIgeTI9IjM5Ny41Ii8+PGxpbmUgc3R5bGU9InN0cm9rZTojMTgxODE4O3N0cm9rZS13aWR0aDowLjU7IiB4MT0iMjY2IiB4Mj0iNTA5IiB5MT0iNDA1LjUiIHkyPSI0MDUuNSIvPjxlbGxpcHNlIGN4PSIyNzYiIGN5PSI0MTguNDkyMiIgZmlsbD0iIzg0QkU4NCIgcng9IjMiIHJ5PSIzIiBzdHlsZT0ic3Ryb2tlOiMwMzgwNDg7c3Ryb2tlLXdpZHRoOjEuMDsiLz48dGV4dCBmaWxsPSIjMDAwMDAwIiBmb250LWZhbWlseT0ic2Fucy1zZXJpZiIgZm9udC1zaXplPSIxNCIgbGVuZ3RoQWRqdXN0PSJzcGFjaW5nIiB0ZXh0TGVuZ3RoPSIyMTkiIHg9IjI4NSIgeT0iNDIyLjczNDQiPlB1enpsZShmaWxlSW5mbzpTdWRva3VGaWxlSW5mbyk8L3RleHQ+PC9nPjwhLS1jbGFzcyBTdWRva3VGaWxlSW5mby0tPjxnIGlkPSJlbGVtX1N1ZG9rdUZpbGVJbmZvIj48cmVjdCBjb2RlTGluZT0iMTM4IiBmaWxsPSIjRjFGMUYxIiBoZWlnaHQ9IjEzNy45MDYzIiBpZD0iU3Vkb2t1RmlsZUluZm8iIHJ4PSIyLjUiIHJ5PSIyLjUiIHN0eWxlPSJzdHJva2U6IzE4MTgxODtzdHJva2Utd2lkdGg6MC41OyIgd2lkdGg9IjI2OCIgeD0iMjUzLjUiIHk9IjUxMSIvPjxlbGxpcHNlIGN4PSIzMzQuMjUiIGN5PSI1MjciIGZpbGw9IiNBREQxQjIiIHJ4PSIxMSIgcnk9IjExIiBzdHlsZT0ic3Ryb2tlOiMxODE4MTg7c3Ryb2tlLXdpZHRoOjEuMDsiLz48cGF0aCBkPSJNMzMxLjg3NSw1MzEuMjUgTDMzMS44NzUsNTMzIEwzMzYuODEyNSw1MzMgTDMzNi44MTI1LDUzMS4yNSBMMzMxLjg3NSw1MzEuMjUgWiBNMzMyLjU2MjUsNTMxLjkzNzUgUTMzMi41NjI1LDUzMS45Mzc1IDMzMi41NjI1LDUyMi43NSBMMzMwLjgxMjUsNTIyLjc1IFEzMzAuODEyNSw1MjIuNzUgMzMwLjgxMjUsNTMxLjkzNzUgTDMzMi41NjI1LDUzMS45Mzc1IFogTTMzNi4xMjUsNTMxLjkzNzUgTDMzNy44NzUsNTMxLjkzNzUgUTMzNy44NzUsNTMxLjkzNzUgMzM3Ljg3NSw1MjkuMTI1IEwzMzYuMTI1LDUyOS4xMjUgUTMzNi4xMjUsNTI5LjEyNSAzMzYuMTI1LDUzMS45Mzc1IFogTTMzNi4xMjUsNTIyLjc1IFEzMzYuMTI1LDUyMi43NSAzMzYuMTI1LDUyNS41NjI1IEwzMzcuODc1LDUyNS41NjI1IFEzMzcuODc1LDUyNS41NjI1IDMzNy44NzUsNTIyLjc1IEwzMzYuMTI1LDUyMi43NSBaIE0zMzEuODc1LDUyMy40Mzc1IEwzMzYuODEyNSw1MjMuNDM3NSBMMzM2LjgxMjUsNTIxLjY4NzUgTDMzMS44NzUsNTIxLjY4NzUgTDMzMS44NzUsNTIzLjQzNzUgWiAiIGZpbGw9IiMwMDAwMDAiLz48dGV4dCBmaWxsPSIjMDAwMDAwIiBmb250LWZhbWlseT0ic2Fucy1zZXJpZiIgZm9udC1zaXplPSIxNCIgbGVuZ3RoQWRqdXN0PSJzcGFjaW5nIiB0ZXh0TGVuZ3RoPSI5OCIgeD0iMzU0Ljc1IiB5PSI1MzIuNzQyMiI+U3Vkb2t1RmlsZUluZm88L3RleHQ+PGxpbmUgc3R5bGU9InN0cm9rZTojMTgxODE4O3N0cm9rZS13aWR0aDowLjU7IiB4MT0iMjU0LjUiIHgyPSI1MjAuNSIgeTE9IjU0MyIgeTI9IjU0MyIvPjxlbGxpcHNlIGN4PSIyNjQuNSIgY3k9IjU1NS45OTIyIiBmaWxsPSJub25lIiByeD0iMyIgcnk9IjMiIHN0eWxlPSJzdHJva2U6IzAzODA0ODtzdHJva2Utd2lkdGg6MS4wOyIvPjx0ZXh0IGZpbGw9IiMwMDAwMDAiIGZvbnQtZmFtaWx5PSJzYW5zLXNlcmlmIiBmb250LXNpemU9IjE0IiBsZW5ndGhBZGp1c3Q9InNwYWNpbmciIHRleHRMZW5ndGg9IjIwMCIgeD0iMjczLjUiIHk9IjU2MC4yMzQ0Ij5Db250ZW50IDogc3RyaW5nICYjMTcxO2dldCYjMTg3OyAmIzE3MTtzZXQmIzE4Nzs8L3RleHQ+PGVsbGlwc2UgY3g9IjI2NC41IiBjeT0iNTcwLjk3NjYiIGZpbGw9Im5vbmUiIHJ4PSIzIiByeT0iMyIgc3R5bGU9InN0cm9rZTojMDM4MDQ4O3N0cm9rZS13aWR0aDoxLjA7Ii8+PHRleHQgZmlsbD0iIzAwMDAwMCIgZm9udC1mYW1pbHk9InNhbnMtc2VyaWYiIGZvbnQtc2l6ZT0iMTQiIGxlbmd0aEFkanVzdD0ic3BhY2luZyIgdGV4dExlbmd0aD0iMjIxIiB4PSIyNzMuNSIgeT0iNTc1LjIxODgiPkNsdXN0ZXJIZWlnaHQgOiBpbnQgJiMxNzE7Z2V0JiMxODc7ICYjMTcxO3NldCYjMTg3OzwvdGV4dD48ZWxsaXBzZSBjeD0iMjY0LjUiIGN5PSI1ODUuOTYwOSIgZmlsbD0ibm9uZSIgcng9IjMiIHJ5PSIzIiBzdHlsZT0ic3Ryb2tlOiMwMzgwNDg7c3Ryb2tlLXdpZHRoOjEuMDsiLz48dGV4dCBmaWxsPSIjMDAwMDAwIiBmb250LWZhbWlseT0ic2Fucy1zZXJpZiIgZm9udC1zaXplPSIxNCIgbGVuZ3RoQWRqdXN0PSJzcGFjaW5nIiB0ZXh0TGVuZ3RoPSIyMTQiIHg9IjI3My41IiB5PSI1OTAuMjAzMSI+Q2x1c3RlcldpZHRoIDogaW50ICYjMTcxO2dldCYjMTg3OyAmIzE3MTtzZXQmIzE4Nzs8L3RleHQ+PGVsbGlwc2UgY3g9IjI2NC41IiBjeT0iNjAwLjk0NTMiIGZpbGw9Im5vbmUiIHJ4PSIzIiByeT0iMyIgc3R5bGU9InN0cm9rZTojMDM4MDQ4O3N0cm9rZS13aWR0aDoxLjA7Ii8+PHRleHQgZmlsbD0iIzAwMDAwMCIgZm9udC1mYW1pbHk9InNhbnMtc2VyaWYiIGZvbnQtc2l6ZT0iMTQiIGxlbmd0aEFkanVzdD0ic3BhY2luZyIgdGV4dExlbmd0aD0iMTU4IiB4PSIyNzMuNSIgeT0iNjA1LjE4NzUiPlNpemUgOiBpbnQgJiMxNzE7Z2V0JiMxODc7ICYjMTcxO3NldCYjMTg3OzwvdGV4dD48ZWxsaXBzZSBjeD0iMjY0LjUiIGN5PSI2MTUuOTI5NyIgZmlsbD0ibm9uZSIgcng9IjMiIHJ5PSIzIiBzdHlsZT0ic3Ryb2tlOiMwMzgwNDg7c3Ryb2tlLXdpZHRoOjEuMDsiLz48dGV4dCBmaWxsPSIjMDAwMDAwIiBmb250LWZhbWlseT0ic2Fucy1zZXJpZiIgZm9udC1zaXplPSIxNCIgbGVuZ3RoQWRqdXN0PSJzcGFjaW5nIiB0ZXh0TGVuZ3RoPSIyNDIiIHg9IjI3My41IiB5PSI2MjAuMTcxOSI+RmlsZUV4dGVuc2lvbiA6IHN0cmluZyAmIzE3MTtnZXQmIzE4NzsgJiMxNzE7c2V0JiMxODc7PC90ZXh0PjxsaW5lIHN0eWxlPSJzdHJva2U6IzE4MTgxODtzdHJva2Utd2lkdGg6MC41OyIgeDE9IjI1NC41IiB4Mj0iNTIwLjUiIHkxPSI2MjUuOTIxOSIgeTI9IjYyNS45MjE5Ii8+PGVsbGlwc2UgY3g9IjI2NC41IiBjeT0iNjM4LjkxNDEiIGZpbGw9IiM4NEJFODQiIHJ4PSIzIiByeT0iMyIgc3R5bGU9InN0cm9rZTojMDM4MDQ4O3N0cm9rZS13aWR0aDoxLjA7Ii8+PHRleHQgZmlsbD0iIzAwMDAwMCIgZm9udC1mYW1pbHk9InNhbnMtc2VyaWYiIGZvbnQtc2l6ZT0iMTQiIGxlbmd0aEFkanVzdD0ic3BhY2luZyIgdGV4dExlbmd0aD0iMjEyIiB4PSIyNzMuNSIgeT0iNjQzLjE1NjMiPlN1ZG9rdUZpbGVJbmZvKGNvbnRlbnQ6c3RyaW5nKTwvdGV4dD48L2c+PCEtLWNsYXNzIENvcnJlY3Rpb25Nb2RlU3RhdGUtLT48ZyBpZD0iZWxlbV9Db3JyZWN0aW9uTW9kZVN0YXRlIj48cmVjdCBjb2RlTGluZT0iNzIiIGZpbGw9IiNGMUYxRjEiIGhlaWdodD0iOTIuOTUzMSIgaWQ9IkNvcnJlY3Rpb25Nb2RlU3RhdGUiIHJ4PSIyLjUiIHJ5PSIyLjUiIHN0eWxlPSJzdHJva2U6IzE4MTgxODtzdHJva2Utd2lkdGg6MC41OyIgd2lkdGg9IjMyNCIgeD0iMTE5OC41IiB5PSI1MzMuNSIvPjxlbGxpcHNlIGN4PSIxMjg5Ljc1IiBjeT0iNTQ5LjUiIGZpbGw9IiNBREQxQjIiIHJ4PSIxMSIgcnk9IjExIiBzdHlsZT0ic3Ryb2tlOiMxODE4MTg7c3Ryb2tlLXdpZHRoOjEuMDsiLz48cGF0aCBkPSJNMTI4Ny4zNzUsNTUzLjc1IEwxMjg3LjM3NSw1NTUuNSBMMTI5Mi4zMTI1LDU1NS41IEwxMjkyLjMxMjUsNTUzLjc1IEwxMjg3LjM3NSw1NTMuNzUgWiBNMTI4OC4wNjI1LDU1NC40Mzc1IFExMjg4LjA2MjUsNTU0LjQzNzUgMTI4OC4wNjI1LDU0NS4yNSBMMTI4Ni4zMTI1LDU0NS4yNSBRMTI4Ni4zMTI1LDU0NS4yNSAxMjg2LjMxMjUsNTU0LjQzNzUgTDEyODguMDYyNSw1NTQuNDM3NSBaIE0xMjkxLjYyNSw1NTQuNDM3NSBMMTI5My4zNzUsNTU0LjQzNzUgUTEyOTMuMzc1LDU1NC40Mzc1IDEyOTMuMzc1LDU1MS42MjUgTDEyOTEuNjI1LDU1MS42MjUgUTEyOTEuNjI1LDU1MS42MjUgMTI5MS42MjUsNTU0LjQzNzUgWiBNMTI5MS42MjUsNTQ1LjI1IFExMjkxLjYyNSw1NDUuMjUgMTI5MS42MjUsNTQ4LjA2MjUgTDEyOTMuMzc1LDU0OC4wNjI1IFExMjkzLjM3NSw1NDguMDYyNSAxMjkzLjM3NSw1NDUuMjUgTDEyOTEuNjI1LDU0NS4yNSBaIE0xMjg3LjM3NSw1NDUuOTM3NSBMMTI5Mi4zMTI1LDU0NS45Mzc1IEwxMjkyLjMxMjUsNTQ0LjE4NzUgTDEyODcuMzc1LDU0NC4xODc1IEwxMjg3LjM3NSw1NDUuOTM3NSBaICIgZmlsbD0iIzAwMDAwMCIvPjx0ZXh0IGZpbGw9IiMwMDAwMDAiIGZvbnQtZmFtaWx5PSJzYW5zLXNlcmlmIiBmb250LXNpemU9IjE0IiBsZW5ndGhBZGp1c3Q9InNwYWNpbmciIHRleHRMZW5ndGg9IjEzMyIgeD0iMTMxMC4yNSIgeT0iNTU1LjI0MjIiPkNvcnJlY3Rpb25Nb2RlU3RhdGU8L3RleHQ+PGxpbmUgc3R5bGU9InN0cm9rZTojMTgxODE4O3N0cm9rZS13aWR0aDowLjU7IiB4MT0iMTE5OS41IiB4Mj0iMTUyMS41IiB5MT0iNTY1LjUiIHkyPSI1NjUuNSIvPjxsaW5lIHN0eWxlPSJzdHJva2U6IzE4MTgxODtzdHJva2Utd2lkdGg6MC41OyIgeDE9IjExOTkuNSIgeDI9IjE1MjEuNSIgeTE9IjU3My41IiB5Mj0iNTczLjUiLz48ZWxsaXBzZSBjeD0iMTIwOS41IiBjeT0iNTg2LjQ5MjIiIGZpbGw9IiM4NEJFODQiIHJ4PSIzIiByeT0iMyIgc3R5bGU9InN0cm9rZTojMDM4MDQ4O3N0cm9rZS13aWR0aDoxLjA7Ii8+PHRleHQgZmlsbD0iIzAwMDAwMCIgZm9udC1mYW1pbHk9InNhbnMtc2VyaWYiIGZvbnQtc2l6ZT0iMTQiIGxlbmd0aEFkanVzdD0ic3BhY2luZyIgdGV4dExlbmd0aD0iMjk4IiB4PSIxMjE4LjUiIHk9IjU5MC43MzQ0Ij5Db3JyZWN0aW9uTW9kZVN0YXRlKHB1enpsZVZpZXc6UHV6emxlVmlldyk8L3RleHQ+PGVsbGlwc2UgY3g9IjEyMDkuNSIgY3k9IjYwMS40NzY2IiBmaWxsPSIjODRCRTg0IiByeD0iMyIgcnk9IjMiIHN0eWxlPSJzdHJva2U6IzAzODA0ODtzdHJva2Utd2lkdGg6MS4wOyIvPjx0ZXh0IGZpbGw9IiMwMDAwMDAiIGZvbnQtZmFtaWx5PSJzYW5zLXNlcmlmIiBmb250LXNpemU9IjE0IiBsZW5ndGhBZGp1c3Q9InNwYWNpbmciIHRleHRMZW5ndGg9IjIyMSIgeD0iMTIxOC41IiB5PSI2MDUuNzE4OCI+JiMxNzE7b3ZlcnJpZGUmIzE4NzsgQ2hhbmdlU3RhdGUoKSA6IHZvaWQ8L3RleHQ+PGVsbGlwc2UgY3g9IjEyMDkuNSIgY3k9IjYxNi40NjA5IiBmaWxsPSIjODRCRTg0IiByeD0iMyIgcnk9IjMiIHN0eWxlPSJzdHJva2U6IzAzODA0ODtzdHJva2Utd2lkdGg6MS4wOyIvPjx0ZXh0IGZpbGw9IiMwMDAwMDAiIGZvbnQtZmFtaWx5PSJzYW5zLXNlcmlmIiBmb250LXNpemU9IjE0IiBsZW5ndGhBZGp1c3Q9InNwYWNpbmciIHRleHRMZW5ndGg9IjE3OSIgeD0iMTIxOC41IiB5PSI2MjAuNzAzMSI+JiMxNzE7b3ZlcnJpZGUmIzE4NzsgUHJpbnQoKSA6IHZvaWQ8L3RleHQ+PC9nPjwhLS1jbGFzcyBNb2RlU3RhdGUtLT48ZyBpZD0iZWxlbV9Nb2RlU3RhdGUiPjxyZWN0IGNvZGVMaW5lPSI5NiIgZmlsbD0iI0YxRjFGMSIgaGVpZ2h0PSI5Mi45NTMxIiBpZD0iTW9kZVN0YXRlIiByeD0iMi41IiByeT0iMi41IiBzdHlsZT0ic3Ryb2tlOiMxODE4MTg7c3Ryb2tlLXdpZHRoOjAuNTsiIHdpZHRoPSIyNTQiIHg9IjgzOS41IiB5PSIzNTAuNSIvPjxlbGxpcHNlIGN4PSI5MzAuNzUiIGN5PSIzNjYuNSIgZmlsbD0iI0E5RENERiIgcng9IjExIiByeT0iMTEiIHN0eWxlPSJzdHJva2U6IzE4MTgxODtzdHJva2Utd2lkdGg6MS4wOyIvPjxwYXRoIGQ9Ik05MjcuMzEyNSwzNjQuMTI1IEw5MjcuMzEyNSwzNzIuMjUgTDkyOS4wNjI1LDM3Mi4yNSBROTI5LjA2MjUsMzcyLjI1IDkyOS4wNjI1LDM2OCBMOTMyLjYyNSwzNjggUTkzMi42MjUsMzY4IDkzMi42MjUsMzcyLjI1IEw5MzQuMzc1LDM3Mi4yNSBMOTM0LjM3NSwzNjQuMTI1IEw5MzIuNjI1LDM2NC4xMjUgUTkzMi42MjUsMzY0LjEyNSA5MzIuNjI1LDM2Ni4yNSBMOTI5LjA2MjUsMzY2LjI1IFE5MjkuMDYyNSwzNjYuMjUgOTI5LjA2MjUsMzY0LjEyNSBMOTI3LjMxMjUsMzY0LjEyNSBaIE05MjguMzc1LDM2NC44MTI1IEw5MzAuMTI1LDM2NC44MTI1IFE5MzAuMTI1LDM2NC44MTI1IDkzMC4xMjUsMzYyIEw5MjguMzc1LDM2MiBROTI4LjM3NSwzNjIgOTI4LjM3NSwzNjQuODEyNSBaIE05MzMuMzEyNSwzNjQuODEyNSBROTMzLjMxMjUsMzY0LjgxMjUgOTMzLjMxMjUsMzYyIEw5MzEuNTYyNSwzNjIgUTkzMS41NjI1LDM2MiA5MzEuNTYyNSwzNjQuODEyNSBMOTMzLjMxMjUsMzY0LjgxMjUgWiBNOTI5LjQzNzUsMzYyLjY4NzUgTDkzMi4yNSwzNjIuNjg3NSBMOTMyLjI1LDM2MC45Mzc1IEw5MjkuNDM3NSwzNjAuOTM3NSBMOTI5LjQzNzUsMzYyLjY4NzUgWiAiIGZpbGw9IiMwMDAwMDAiLz48dGV4dCBmaWxsPSIjMDAwMDAwIiBmb250LWZhbWlseT0ic2Fucy1zZXJpZiIgZm9udC1zaXplPSIxNCIgZm9udC1zdHlsZT0iaXRhbGljIiBsZW5ndGhBZGp1c3Q9InNwYWNpbmciIHRleHRMZW5ndGg9IjYzIiB4PSI5NTEuMjUiIHk9IjM3Mi4yNDIyIj5Nb2RlU3RhdGU8L3RleHQ+PGxpbmUgc3R5bGU9InN0cm9rZTojMTgxODE4O3N0cm9rZS13aWR0aDowLjU7IiB4MT0iODQwLjUiIHgyPSIxMDkyLjUiIHkxPSIzODIuNSIgeTI9IjM4Mi41Ii8+PGxpbmUgc3R5bGU9InN0cm9rZTojMTgxODE4O3N0cm9rZS13aWR0aDowLjU7IiB4MT0iODQwLjUiIHgyPSIxMDkyLjUiIHkxPSIzOTAuNSIgeTI9IjM5MC41Ii8+PGVsbGlwc2UgY3g9Ijg1MC41IiBjeT0iNDAzLjQ5MjIiIGZpbGw9IiM4NEJFODQiIHJ4PSIzIiByeT0iMyIgc3R5bGU9InN0cm9rZTojMDM4MDQ4O3N0cm9rZS13aWR0aDoxLjA7Ii8+PHRleHQgZmlsbD0iIzAwMDAwMCIgZm9udC1mYW1pbHk9InNhbnMtc2VyaWYiIGZvbnQtc2l6ZT0iMTQiIGxlbmd0aEFkanVzdD0ic3BhY2luZyIgdGV4dExlbmd0aD0iMjI4IiB4PSI4NTkuNSIgeT0iNDA3LjczNDQiPk1vZGVTdGF0ZShwdXp6bGVWaWV3OlB1enpsZVZpZXcpPC90ZXh0PjxlbGxpcHNlIGN4PSI4NTAuNSIgY3k9IjQxOC40NzY2IiBmaWxsPSIjODRCRTg0IiByeD0iMyIgcnk9IjMiIHN0eWxlPSJzdHJva2U6IzAzODA0ODtzdHJva2Utd2lkdGg6MS4wOyIvPjx0ZXh0IGZpbGw9IiMwMDAwMDAiIGZvbnQtZmFtaWx5PSJzYW5zLXNlcmlmIiBmb250LXNpemU9IjE0IiBmb250LXN0eWxlPSJpdGFsaWMiIGxlbmd0aEFkanVzdD0ic3BhY2luZyIgdGV4dExlbmd0aD0iMTAwIiB4PSI4NTkuNSIgeT0iNDIyLjcxODgiPlByaW50KCkgOiB2b2lkPC90ZXh0PjxlbGxpcHNlIGN4PSI4NTAuNSIgY3k9IjQzMy40NjA5IiBmaWxsPSIjODRCRTg0IiByeD0iMyIgcnk9IjMiIHN0eWxlPSJzdHJva2U6IzAzODA0ODtzdHJva2Utd2lkdGg6MS4wOyIvPjx0ZXh0IGZpbGw9IiMwMDAwMDAiIGZvbnQtZmFtaWx5PSJzYW5zLXNlcmlmIiBmb250LXNpemU9IjE0IiBmb250LXN0eWxlPSJpdGFsaWMiIGxlbmd0aEFkanVzdD0ic3BhY2luZyIgdGV4dExlbmd0aD0iMTQyIiB4PSI4NTkuNSIgeT0iNDM3LjcwMzEiPkNoYW5nZVN0YXRlKCkgOiB2b2lkPC90ZXh0PjwvZz48IS0tY2xhc3MgRmluYWxNb2RlU3RhdGUtLT48ZyBpZD0iZWxlbV9GaW5hbE1vZGVTdGF0ZSI+PHJlY3QgY29kZUxpbmU9IjgwIiBmaWxsPSIjRjFGMUYxIiBoZWlnaHQ9IjkyLjk1MzEiIGlkPSJGaW5hbE1vZGVTdGF0ZSIgcng9IjIuNSIgcnk9IjIuNSIgc3R5bGU9InN0cm9rZTojMTgxODE4O3N0cm9rZS13aWR0aDowLjU7IiB3aWR0aD0iMjg5IiB4PSI1NTciIHk9IjUzMy41Ii8+PGVsbGlwc2UgY3g9IjY0OC4yNSIgY3k9IjU0OS41IiBmaWxsPSIjQUREMUIyIiByeD0iMTEiIHJ5PSIxMSIgc3R5bGU9InN0cm9rZTojMTgxODE4O3N0cm9rZS13aWR0aDoxLjA7Ii8+PHBhdGggZD0iTTY0NS44NzUsNTUzLjc1IEw2NDUuODc1LDU1NS41IEw2NTAuODEyNSw1NTUuNSBMNjUwLjgxMjUsNTUzLjc1IEw2NDUuODc1LDU1My43NSBaIE02NDYuNTYyNSw1NTQuNDM3NSBRNjQ2LjU2MjUsNTU0LjQzNzUgNjQ2LjU2MjUsNTQ1LjI1IEw2NDQuODEyNSw1NDUuMjUgUTY0NC44MTI1LDU0NS4yNSA2NDQuODEyNSw1NTQuNDM3NSBMNjQ2LjU2MjUsNTU0LjQzNzUgWiBNNjUwLjEyNSw1NTQuNDM3NSBMNjUxLjg3NSw1NTQuNDM3NSBRNjUxLjg3NSw1NTQuNDM3NSA2NTEuODc1LDU1MS42MjUgTDY1MC4xMjUsNTUxLjYyNSBRNjUwLjEyNSw1NTEuNjI1IDY1MC4xMjUsNTU0LjQzNzUgWiBNNjUwLjEyNSw1NDUuMjUgUTY1MC4xMjUsNTQ1LjI1IDY1MC4xMjUsNTQ4LjA2MjUgTDY1MS44NzUsNTQ4LjA2MjUgUTY1MS44NzUsNTQ4LjA2MjUgNjUxLjg3NSw1NDUuMjUgTDY1MC4xMjUsNTQ1LjI1IFogTTY0NS44NzUsNTQ1LjkzNzUgTDY1MC44MTI1LDU0NS45Mzc1IEw2NTAuODEyNSw1NDQuMTg3NSBMNjQ1Ljg3NSw1NDQuMTg3NSBMNjQ1Ljg3NSw1NDUuOTM3NSBaICIgZmlsbD0iIzAwMDAwMCIvPjx0ZXh0IGZpbGw9IiMwMDAwMDAiIGZvbnQtZmFtaWx5PSJzYW5zLXNlcmlmIiBmb250LXNpemU9IjE0IiBsZW5ndGhBZGp1c3Q9InNwYWNpbmciIHRleHRMZW5ndGg9Ijk4IiB4PSI2NjguNzUiIHk9IjU1NS4yNDIyIj5GaW5hbE1vZGVTdGF0ZTwvdGV4dD48bGluZSBzdHlsZT0ic3Ryb2tlOiMxODE4MTg7c3Ryb2tlLXdpZHRoOjAuNTsiIHgxPSI1NTgiIHgyPSI4NDUiIHkxPSI1NjUuNSIgeTI9IjU2NS41Ii8+PGxpbmUgc3R5bGU9InN0cm9rZTojMTgxODE4O3N0cm9rZS13aWR0aDowLjU7IiB4MT0iNTU4IiB4Mj0iODQ1IiB5MT0iNTczLjUiIHkyPSI1NzMuNSIvPjxlbGxpcHNlIGN4PSI1NjgiIGN5PSI1ODYuNDkyMiIgZmlsbD0iIzg0QkU4NCIgcng9IjMiIHJ5PSIzIiBzdHlsZT0ic3Ryb2tlOiMwMzgwNDg7c3Ryb2tlLXdpZHRoOjEuMDsiLz48dGV4dCBmaWxsPSIjMDAwMDAwIiBmb250LWZhbWlseT0ic2Fucy1zZXJpZiIgZm9udC1zaXplPSIxNCIgbGVuZ3RoQWRqdXN0PSJzcGFjaW5nIiB0ZXh0TGVuZ3RoPSIyNjMiIHg9IjU3NyIgeT0iNTkwLjczNDQiPkZpbmFsTW9kZVN0YXRlKHB1enpsZVZpZXc6UHV6emxlVmlldyk8L3RleHQ+PGVsbGlwc2UgY3g9IjU2OCIgY3k9IjYwMS40NzY2IiBmaWxsPSIjODRCRTg0IiByeD0iMyIgcnk9IjMiIHN0eWxlPSJzdHJva2U6IzAzODA0ODtzdHJva2Utd2lkdGg6MS4wOyIvPjx0ZXh0IGZpbGw9IiMwMDAwMDAiIGZvbnQtZmFtaWx5PSJzYW5zLXNlcmlmIiBmb250LXNpemU9IjE0IiBsZW5ndGhBZGp1c3Q9InNwYWNpbmciIHRleHRMZW5ndGg9IjIyMSIgeD0iNTc3IiB5PSI2MDUuNzE4OCI+JiMxNzE7b3ZlcnJpZGUmIzE4NzsgQ2hhbmdlU3RhdGUoKSA6IHZvaWQ8L3RleHQ+PGVsbGlwc2UgY3g9IjU2OCIgY3k9IjYxNi40NjA5IiBmaWxsPSIjODRCRTg0IiByeD0iMyIgcnk9IjMiIHN0eWxlPSJzdHJva2U6IzAzODA0ODtzdHJva2Utd2lkdGg6MS4wOyIvPjx0ZXh0IGZpbGw9IiMwMDAwMDAiIGZvbnQtZmFtaWx5PSJzYW5zLXNlcmlmIiBmb250LXNpemU9IjE0IiBsZW5ndGhBZGp1c3Q9InNwYWNpbmciIHRleHRMZW5ndGg9IjE3OSIgeD0iNTc3IiB5PSI2MjAuNzAzMSI+JiMxNzE7b3ZlcnJpZGUmIzE4NzsgUHJpbnQoKSA6IHZvaWQ8L3RleHQ+PC9nPjwhLS1jbGFzcyBIZWxwTW9kZVN0YXRlLS0+PGcgaWQ9ImVsZW1fSGVscE1vZGVTdGF0ZSI+PHJlY3QgY29kZUxpbmU9Ijg4IiBmaWxsPSIjRjFGMUYxIiBoZWlnaHQ9IjkyLjk1MzEiIGlkPSJIZWxwTW9kZVN0YXRlIiByeD0iMi41IiByeT0iMi41IiBzdHlsZT0ic3Ryb2tlOiMxODE4MTg7c3Ryb2tlLXdpZHRoOjAuNTsiIHdpZHRoPSIyODIiIHg9Ijg4MS41IiB5PSI1MzMuNSIvPjxlbGxpcHNlIGN4PSI5NzIuNzUiIGN5PSI1NDkuNSIgZmlsbD0iI0FERDFCMiIgcng9IjExIiByeT0iMTEiIHN0eWxlPSJzdHJva2U6IzE4MTgxODtzdHJva2Utd2lkdGg6MS4wOyIvPjxwYXRoIGQ9Ik05NzAuMzc1LDU1My43NSBMOTcwLjM3NSw1NTUuNSBMOTc1LjMxMjUsNTU1LjUgTDk3NS4zMTI1LDU1My43NSBMOTcwLjM3NSw1NTMuNzUgWiBNOTcxLjA2MjUsNTU0LjQzNzUgUTk3MS4wNjI1LDU1NC40Mzc1IDk3MS4wNjI1LDU0NS4yNSBMOTY5LjMxMjUsNTQ1LjI1IFE5NjkuMzEyNSw1NDUuMjUgOTY5LjMxMjUsNTU0LjQzNzUgTDk3MS4wNjI1LDU1NC40Mzc1IFogTTk3NC42MjUsNTU0LjQzNzUgTDk3Ni4zNzUsNTU0LjQzNzUgUTk3Ni4zNzUsNTU0LjQzNzUgOTc2LjM3NSw1NTEuNjI1IEw5NzQuNjI1LDU1MS42MjUgUTk3NC42MjUsNTUxLjYyNSA5NzQuNjI1LDU1NC40Mzc1IFogTTk3NC42MjUsNTQ1LjI1IFE5NzQuNjI1LDU0NS4yNSA5NzQuNjI1LDU0OC4wNjI1IEw5NzYuMzc1LDU0OC4wNjI1IFE5NzYuMzc1LDU0OC4wNjI1IDk3Ni4zNzUsNTQ1LjI1IEw5NzQuNjI1LDU0NS4yNSBaIE05NzAuMzc1LDU0NS45Mzc1IEw5NzUuMzEyNSw1NDUuOTM3NSBMOTc1LjMxMjUsNTQ0LjE4NzUgTDk3MC4zNzUsNTQ0LjE4NzUgTDk3MC4zNzUsNTQ1LjkzNzUgWiAiIGZpbGw9IiMwMDAwMDAiLz48dGV4dCBmaWxsPSIjMDAwMDAwIiBmb250LWZhbWlseT0ic2Fucy1zZXJpZiIgZm9udC1zaXplPSIxNCIgbGVuZ3RoQWRqdXN0PSJzcGFjaW5nIiB0ZXh0TGVuZ3RoPSI5MSIgeD0iOTkzLjI1IiB5PSI1NTUuMjQyMiI+SGVscE1vZGVTdGF0ZTwvdGV4dD48bGluZSBzdHlsZT0ic3Ryb2tlOiMxODE4MTg7c3Ryb2tlLXdpZHRoOjAuNTsiIHgxPSI4ODIuNSIgeDI9IjExNjIuNSIgeTE9IjU2NS41IiB5Mj0iNTY1LjUiLz48bGluZSBzdHlsZT0ic3Ryb2tlOiMxODE4MTg7c3Ryb2tlLXdpZHRoOjAuNTsiIHgxPSI4ODIuNSIgeDI9IjExNjIuNSIgeTE9IjU3My41IiB5Mj0iNTczLjUiLz48ZWxsaXBzZSBjeD0iODkyLjUiIGN5PSI1ODYuNDkyMiIgZmlsbD0iIzg0QkU4NCIgcng9IjMiIHJ5PSIzIiBzdHlsZT0ic3Ryb2tlOiMwMzgwNDg7c3Ryb2tlLXdpZHRoOjEuMDsiLz48dGV4dCBmaWxsPSIjMDAwMDAwIiBmb250LWZhbWlseT0ic2Fucy1zZXJpZiIgZm9udC1zaXplPSIxNCIgbGVuZ3RoQWRqdXN0PSJzcGFjaW5nIiB0ZXh0TGVuZ3RoPSIyNTYiIHg9IjkwMS41IiB5PSI1OTAuNzM0NCI+SGVscE1vZGVTdGF0ZShwdXp6bGVWaWV3OlB1enpsZVZpZXcpPC90ZXh0PjxlbGxpcHNlIGN4PSI4OTIuNSIgY3k9IjYwMS40NzY2IiBmaWxsPSIjODRCRTg0IiByeD0iMyIgcnk9IjMiIHN0eWxlPSJzdHJva2U6IzAzODA0ODtzdHJva2Utd2lkdGg6MS4wOyIvPjx0ZXh0IGZpbGw9IiMwMDAwMDAiIGZvbnQtZmFtaWx5PSJzYW5zLXNlcmlmIiBmb250LXNpemU9IjE0IiBsZW5ndGhBZGp1c3Q9InNwYWNpbmciIHRleHRMZW5ndGg9IjIyMSIgeD0iOTAxLjUiIHk9IjYwNS43MTg4Ij4mIzE3MTtvdmVycmlkZSYjMTg3OyBDaGFuZ2VTdGF0ZSgpIDogdm9pZDwvdGV4dD48ZWxsaXBzZSBjeD0iODkyLjUiIGN5PSI2MTYuNDYwOSIgZmlsbD0iIzg0QkU4NCIgcng9IjMiIHJ5PSIzIiBzdHlsZT0ic3Ryb2tlOiMwMzgwNDg7c3Ryb2tlLXdpZHRoOjEuMDsiLz48dGV4dCBmaWxsPSIjMDAwMDAwIiBmb250LWZhbWlseT0ic2Fucy1zZXJpZiIgZm9udC1zaXplPSIxNCIgbGVuZ3RoQWRqdXN0PSJzcGFjaW5nIiB0ZXh0TGVuZ3RoPSIxNzkiIHg9IjkwMS41IiB5PSI2MjAuNzAzMSI+JiMxNzE7b3ZlcnJpZGUmIzE4NzsgUHJpbnQoKSA6IHZvaWQ8L3RleHQ+PC9nPjwhLS1jbGFzcyBGb3VyQnlGb3VyRmlsZVJlYWRlci0tPjxnIGlkPSJlbGVtX0ZvdXJCeUZvdXJGaWxlUmVhZGVyIj48cmVjdCBjb2RlTGluZT0iMTAzIiBmaWxsPSIjRjFGMUYxIiBoZWlnaHQ9IjYyLjk4NDQiIGlkPSJGb3VyQnlGb3VyRmlsZVJlYWRlciIgcng9IjIuNSIgcnk9IjIuNSIgc3R5bGU9InN0cm9rZTojMTgxODE4O3N0cm9rZS13aWR0aDowLjU7IiB3aWR0aD0iMjk0IiB4PSIxNjk0LjUiIHk9IjE5Ny41Ii8+PGVsbGlwc2UgY3g9IjE3NjcuMjUiIGN5PSIyMTMuNSIgZmlsbD0iI0FERDFCMiIgcng9IjExIiByeT0iMTEiIHN0eWxlPSJzdHJva2U6IzE4MTgxODtzdHJva2Utd2lkdGg6MS4wOyIvPjxwYXRoIGQ9Ik0xNzY0Ljg3NSwyMTcuNzUgTDE3NjQuODc1LDIxOS41IEwxNzY5LjgxMjUsMjE5LjUgTDE3NjkuODEyNSwyMTcuNzUgTDE3NjQuODc1LDIxNy43NSBaIE0xNzY1LjU2MjUsMjE4LjQzNzUgUTE3NjUuNTYyNSwyMTguNDM3NSAxNzY1LjU2MjUsMjA5LjI1IEwxNzYzLjgxMjUsMjA5LjI1IFExNzYzLjgxMjUsMjA5LjI1IDE3NjMuODEyNSwyMTguNDM3NSBMMTc2NS41NjI1LDIxOC40Mzc1IFogTTE3NjkuMTI1LDIxOC40Mzc1IEwxNzcwLjg3NSwyMTguNDM3NSBRMTc3MC44NzUsMjE4LjQzNzUgMTc3MC44NzUsMjE1LjYyNSBMMTc2OS4xMjUsMjE1LjYyNSBRMTc2OS4xMjUsMjE1LjYyNSAxNzY5LjEyNSwyMTguNDM3NSBaIE0xNzY5LjEyNSwyMDkuMjUgUTE3NjkuMTI1LDIwOS4yNSAxNzY5LjEyNSwyMTIuMDYyNSBMMTc3MC44NzUsMjEyLjA2MjUgUTE3NzAuODc1LDIxMi4wNjI1IDE3NzAuODc1LDIwOS4yNSBMMTc2OS4xMjUsMjA5LjI1IFogTTE3NjQuODc1LDIwOS45Mzc1IEwxNzY5LjgxMjUsMjA5LjkzNzUgTDE3NjkuODEyNSwyMDguMTg3NSBMMTc2NC44NzUsMjA4LjE4NzUgTDE3NjQuODc1LDIwOS45Mzc1IFogIiBmaWxsPSIjMDAwMDAwIi8+PHRleHQgZmlsbD0iIzAwMDAwMCIgZm9udC1mYW1pbHk9InNhbnMtc2VyaWYiIGZvbnQtc2l6ZT0iMTQiIGxlbmd0aEFkanVzdD0ic3BhY2luZyIgdGV4dExlbmd0aD0iMTQwIiB4PSIxNzg3Ljc1IiB5PSIyMTkuMjQyMiI+Rm91ckJ5Rm91ckZpbGVSZWFkZXI8L3RleHQ+PGxpbmUgc3R5bGU9InN0cm9rZTojMTgxODE4O3N0cm9rZS13aWR0aDowLjU7IiB4MT0iMTY5NS41IiB4Mj0iMTk4Ny41IiB5MT0iMjI5LjUiIHkyPSIyMjkuNSIvPjxsaW5lIHN0eWxlPSJzdHJva2U6IzE4MTgxODtzdHJva2Utd2lkdGg6MC41OyIgeDE9IjE2OTUuNSIgeDI9IjE5ODcuNSIgeTE9IjIzNy41IiB5Mj0iMjM3LjUiLz48ZWxsaXBzZSBjeD0iMTcwNS41IiBjeT0iMjUwLjQ5MjIiIGZpbGw9IiM4NEJFODQiIHJ4PSIzIiByeT0iMyIgc3R5bGU9InN0cm9rZTojMDM4MDQ4O3N0cm9rZS13aWR0aDoxLjA7Ii8+PHRleHQgZmlsbD0iIzAwMDAwMCIgZm9udC1mYW1pbHk9InNhbnMtc2VyaWYiIGZvbnQtc2l6ZT0iMTQiIGxlbmd0aEFkanVzdD0ic3BhY2luZyIgdGV4dExlbmd0aD0iMjY4IiB4PSIxNzE0LjUiIHk9IjI1NC43MzQ0Ij5SZWFkRmlsZShwYXRoOnN0cmluZykgOiBTdWRva3VGaWxlSW5mbzwvdGV4dD48L2c+PCEtLWNsYXNzIElGaWxlUmVhZGVyLS0+PGcgaWQ9ImVsZW1fSUZpbGVSZWFkZXIiPjxyZWN0IGNvZGVMaW5lPSIxMDkiIGZpbGw9IiNGMUYxRjEiIGhlaWdodD0iNjIuOTg0NCIgaWQ9IklGaWxlUmVhZGVyIiByeD0iMi41IiByeT0iMi41IiBzdHlsZT0ic3Ryb2tlOiMxODE4MTg7c3Ryb2tlLXdpZHRoOjAuNTsiIHdpZHRoPSIyOTQiIHg9IjIzNTIuNSIgeT0iMjkuNSIvPjxlbGxpcHNlIGN4PSIyNDU2Ljc1IiBjeT0iNDUuNSIgZmlsbD0iI0I0QTdFNSIgcng9IjExIiByeT0iMTEiIHN0eWxlPSJzdHJva2U6IzE4MTgxODtzdHJva2Utd2lkdGg6MS4wOyIvPjxwYXRoIGQ9Ik0yNDU5Ljg3NSw1MS41IEwyNDU5Ljg3NSw0OS43NSBMMjQ1Ny43NSw0OS43NSBRMjQ1Ny43NSw0OS43NSAyNDU3Ljc1LDQxLjkzNzUgTDI0NTkuODc1LDQxLjkzNzUgTDI0NTkuODc1LDQwLjE4NzUgTDI0NTMuODc1LDQwLjE4NzUgTDI0NTMuODc1LDQxLjkzNzUgTDI0NTYsNDEuOTM3NSBRMjQ1Niw0MS45Mzc1IDI0NTYsNDkuNzUgTDI0NTMuODc1LDQ5Ljc1IEwyNDUzLjg3NSw1MS41IEwyNDU5Ljg3NSw1MS41IFogIiBmaWxsPSIjMDAwMDAwIi8+PHRleHQgZmlsbD0iIzAwMDAwMCIgZm9udC1mYW1pbHk9InNhbnMtc2VyaWYiIGZvbnQtc2l6ZT0iMTQiIGZvbnQtc3R5bGU9Iml0YWxpYyIgbGVuZ3RoQWRqdXN0PSJzcGFjaW5nIiB0ZXh0TGVuZ3RoPSI3NyIgeD0iMjQ3Ny4yNSIgeT0iNTEuMjQyMiI+SUZpbGVSZWFkZXI8L3RleHQ+PGxpbmUgc3R5bGU9InN0cm9rZTojMTgxODE4O3N0cm9rZS13aWR0aDowLjU7IiB4MT0iMjM1My41IiB4Mj0iMjY0NS41IiB5MT0iNjEuNSIgeTI9IjYxLjUiLz48bGluZSBzdHlsZT0ic3Ryb2tlOiMxODE4MTg7c3Ryb2tlLXdpZHRoOjAuNTsiIHgxPSIyMzUzLjUiIHgyPSIyNjQ1LjUiIHkxPSI2OS41IiB5Mj0iNjkuNSIvPjxlbGxpcHNlIGN4PSIyMzYzLjUiIGN5PSI4Mi40OTIyIiBmaWxsPSIjODRCRTg0IiByeD0iMyIgcnk9IjMiIHN0eWxlPSJzdHJva2U6IzAzODA0ODtzdHJva2Utd2lkdGg6MS4wOyIvPjx0ZXh0IGZpbGw9IiMwMDAwMDAiIGZvbnQtZmFtaWx5PSJzYW5zLXNlcmlmIiBmb250LXNpemU9IjE0IiBsZW5ndGhBZGp1c3Q9InNwYWNpbmciIHRleHRMZW5ndGg9IjI2OCIgeD0iMjM3Mi41IiB5PSI4Ni43MzQ0Ij5SZWFkRmlsZShwYXRoOnN0cmluZykgOiBTdWRva3VGaWxlSW5mbzwvdGV4dD48L2c+PCEtLWNsYXNzIEppZ3Nhd0ZpbGVSZWFkZXItLT48ZyBpZD0iZWxlbV9KaWdzYXdGaWxlUmVhZGVyIj48cmVjdCBjb2RlTGluZT0iMTE0IiBmaWxsPSIjRjFGMUYxIiBoZWlnaHQ9IjYyLjk4NDQiIGlkPSJKaWdzYXdGaWxlUmVhZGVyIiByeD0iMi41IiByeT0iMi41IiBzdHlsZT0ic3Ryb2tlOiMxODE4MTg7c3Ryb2tlLXdpZHRoOjAuNTsiIHdpZHRoPSIyOTQiIHg9IjIwMjMuNSIgeT0iMTk3LjUiLz48ZWxsaXBzZSBjeD0iMjEwOS4yNSIgY3k9IjIxMy41IiBmaWxsPSIjQUREMUIyIiByeD0iMTEiIHJ5PSIxMSIgc3R5bGU9InN0cm9rZTojMTgxODE4O3N0cm9rZS13aWR0aDoxLjA7Ii8+PHBhdGggZD0iTTIxMDYuODc1LDIxNy43NSBMMjEwNi44NzUsMjE5LjUgTDIxMTEuODEyNSwyMTkuNSBMMjExMS44MTI1LDIxNy43NSBMMjEwNi44NzUsMjE3Ljc1IFogTTIxMDcuNTYyNSwyMTguNDM3NSBRMjEwNy41NjI1LDIxOC40Mzc1IDIxMDcuNTYyNSwyMDkuMjUgTDIxMDUuODEyNSwyMDkuMjUgUTIxMDUuODEyNSwyMDkuMjUgMjEwNS44MTI1LDIxOC40Mzc1IEwyMTA3LjU2MjUsMjE4LjQzNzUgWiBNMjExMS4xMjUsMjE4LjQzNzUgTDIxMTIuODc1LDIxOC40Mzc1IFEyMTEyLjg3NSwyMTguNDM3NSAyMTEyLjg3NSwyMTUuNjI1IEwyMTExLjEyNSwyMTUuNjI1IFEyMTExLjEyNSwyMTUuNjI1IDIxMTEuMTI1LDIxOC40Mzc1IFogTTIxMTEuMTI1LDIwOS4yNSBRMjExMS4xMjUsMjA5LjI1IDIxMTEuMTI1LDIxMi4wNjI1IEwyMTEyLjg3NSwyMTIuMDYyNSBRMjExMi44NzUsMjEyLjA2MjUgMjExMi44NzUsMjA5LjI1IEwyMTExLjEyNSwyMDkuMjUgWiBNMjEwNi44NzUsMjA5LjkzNzUgTDIxMTEuODEyNSwyMDkuOTM3NSBMMjExMS44MTI1LDIwOC4xODc1IEwyMTA2Ljg3NSwyMDguMTg3NSBMMjEwNi44NzUsMjA5LjkzNzUgWiAiIGZpbGw9IiMwMDAwMDAiLz48dGV4dCBmaWxsPSIjMDAwMDAwIiBmb250LWZhbWlseT0ic2Fucy1zZXJpZiIgZm9udC1zaXplPSIxNCIgbGVuZ3RoQWRqdXN0PSJzcGFjaW5nIiB0ZXh0TGVuZ3RoPSIxMTQiIHg9IjIxMjkuNzUiIHk9IjIxOS4yNDIyIj5KaWdzYXdGaWxlUmVhZGVyPC90ZXh0PjxsaW5lIHN0eWxlPSJzdHJva2U6IzE4MTgxODtzdHJva2Utd2lkdGg6MC41OyIgeDE9IjIwMjQuNSIgeDI9IjIzMTYuNSIgeTE9IjIyOS41IiB5Mj0iMjI5LjUiLz48bGluZSBzdHlsZT0ic3Ryb2tlOiMxODE4MTg7c3Ryb2tlLXdpZHRoOjAuNTsiIHgxPSIyMDI0LjUiIHgyPSIyMzE2LjUiIHkxPSIyMzcuNSIgeTI9IjIzNy41Ii8+PGVsbGlwc2UgY3g9IjIwMzQuNSIgY3k9IjI1MC40OTIyIiBmaWxsPSIjODRCRTg0IiByeD0iMyIgcnk9IjMiIHN0eWxlPSJzdHJva2U6IzAzODA0ODtzdHJva2Utd2lkdGg6MS4wOyIvPjx0ZXh0IGZpbGw9IiMwMDAwMDAiIGZvbnQtZmFtaWx5PSJzYW5zLXNlcmlmIiBmb250LXNpemU9IjE0IiBsZW5ndGhBZGp1c3Q9InNwYWNpbmciIHRleHRMZW5ndGg9IjI2OCIgeD0iMjA0My41IiB5PSIyNTQuNzM0NCI+UmVhZEZpbGUocGF0aDpzdHJpbmcpIDogU3Vkb2t1RmlsZUluZm88L3RleHQ+PC9nPjwhLS1jbGFzcyBOaW5lQnlOaW5lRmlsZVJlYWRlci0tPjxnIGlkPSJlbGVtX05pbmVCeU5pbmVGaWxlUmVhZGVyIj48cmVjdCBjb2RlTGluZT0iMTIwIiBmaWxsPSIjRjFGMUYxIiBoZWlnaHQ9IjYyLjk4NDQiIGlkPSJOaW5lQnlOaW5lRmlsZVJlYWRlciIgcng9IjIuNSIgcnk9IjIuNSIgc3R5bGU9InN0cm9rZTojMTgxODE4O3N0cm9rZS13aWR0aDowLjU7IiB3aWR0aD0iMjk0IiB4PSIyMzUyLjUiIHk9IjE5Ny41Ii8+PGVsbGlwc2UgY3g9IjI0MjUuMjUiIGN5PSIyMTMuNSIgZmlsbD0iI0FERDFCMiIgcng9IjExIiByeT0iMTEiIHN0eWxlPSJzdHJva2U6IzE4MTgxODtzdHJva2Utd2lkdGg6MS4wOyIvPjxwYXRoIGQ9Ik0yNDIyLjg3NSwyMTcuNzUgTDI0MjIuODc1LDIxOS41IEwyNDI3LjgxMjUsMjE5LjUgTDI0MjcuODEyNSwyMTcuNzUgTDI0MjIuODc1LDIxNy43NSBaIE0yNDIzLjU2MjUsMjE4LjQzNzUgUTI0MjMuNTYyNSwyMTguNDM3NSAyNDIzLjU2MjUsMjA5LjI1IEwyNDIxLjgxMjUsMjA5LjI1IFEyNDIxLjgxMjUsMjA5LjI1IDI0MjEuODEyNSwyMTguNDM3NSBMMjQyMy41NjI1LDIxOC40Mzc1IFogTTI0MjcuMTI1LDIxOC40Mzc1IEwyNDI4Ljg3NSwyMTguNDM3NSBRMjQyOC44NzUsMjE4LjQzNzUgMjQyOC44NzUsMjE1LjYyNSBMMjQyNy4xMjUsMjE1LjYyNSBRMjQyNy4xMjUsMjE1LjYyNSAyNDI3LjEyNSwyMTguNDM3NSBaIE0yNDI3LjEyNSwyMDkuMjUgUTI0MjcuMTI1LDIwOS4yNSAyNDI3LjEyNSwyMTIuMDYyNSBMMjQyOC44NzUsMjEyLjA2MjUgUTI0MjguODc1LDIxMi4wNjI1IDI0MjguODc1LDIwOS4yNSBMMjQyNy4xMjUsMjA5LjI1IFogTTI0MjIuODc1LDIwOS45Mzc1IEwyNDI3LjgxMjUsMjA5LjkzNzUgTDI0MjcuODEyNSwyMDguMTg3NSBMMjQyMi44NzUsMjA4LjE4NzUgTDI0MjIuODc1LDIwOS45Mzc1IFogIiBmaWxsPSIjMDAwMDAwIi8+PHRleHQgZmlsbD0iIzAwMDAwMCIgZm9udC1mYW1pbHk9InNhbnMtc2VyaWYiIGZvbnQtc2l6ZT0iMTQiIGxlbmd0aEFkanVzdD0ic3BhY2luZyIgdGV4dExlbmd0aD0iMTQwIiB4PSIyNDQ1Ljc1IiB5PSIyMTkuMjQyMiI+TmluZUJ5TmluZUZpbGVSZWFkZXI8L3RleHQ+PGxpbmUgc3R5bGU9InN0cm9rZTojMTgxODE4O3N0cm9rZS13aWR0aDowLjU7IiB4MT0iMjM1My41IiB4Mj0iMjY0NS41IiB5MT0iMjI5LjUiIHkyPSIyMjkuNSIvPjxsaW5lIHN0eWxlPSJzdHJva2U6IzE4MTgxODtzdHJva2Utd2lkdGg6MC41OyIgeDE9IjIzNTMuNSIgeDI9IjI2NDUuNSIgeTE9IjIzNy41IiB5Mj0iMjM3LjUiLz48ZWxsaXBzZSBjeD0iMjM2My41IiBjeT0iMjUwLjQ5MjIiIGZpbGw9IiM4NEJFODQiIHJ4PSIzIiByeT0iMyIgc3R5bGU9InN0cm9rZTojMDM4MDQ4O3N0cm9rZS13aWR0aDoxLjA7Ii8+PHRleHQgZmlsbD0iIzAwMDAwMCIgZm9udC1mYW1pbHk9InNhbnMtc2VyaWYiIGZvbnQtc2l6ZT0iMTQiIGxlbmd0aEFkanVzdD0ic3BhY2luZyIgdGV4dExlbmd0aD0iMjY4IiB4PSIyMzcyLjUiIHk9IjI1NC43MzQ0Ij5SZWFkRmlsZShwYXRoOnN0cmluZykgOiBTdWRva3VGaWxlSW5mbzwvdGV4dD48L2c+PCEtLWNsYXNzIFNhbXVyYWlGaWxlUmVhZGVyLS0+PGcgaWQ9ImVsZW1fU2FtdXJhaUZpbGVSZWFkZXIiPjxyZWN0IGNvZGVMaW5lPSIxMjYiIGZpbGw9IiNGMUYxRjEiIGhlaWdodD0iNjIuOTg0NCIgaWQ9IlNhbXVyYWlGaWxlUmVhZGVyIiByeD0iMi41IiByeT0iMi41IiBzdHlsZT0ic3Ryb2tlOiMxODE4MTg7c3Ryb2tlLXdpZHRoOjAuNTsiIHdpZHRoPSIyOTQiIHg9IjI2ODEuNSIgeT0iMTk3LjUiLz48ZWxsaXBzZSBjeD0iMjc2NC4yNSIgY3k9IjIxMy41IiBmaWxsPSIjQUREMUIyIiByeD0iMTEiIHJ5PSIxMSIgc3R5bGU9InN0cm9rZTojMTgxODE4O3N0cm9rZS13aWR0aDoxLjA7Ii8+PHBhdGggZD0iTTI3NjEuODc1LDIxNy43NSBMMjc2MS44NzUsMjE5LjUgTDI3NjYuODEyNSwyMTkuNSBMMjc2Ni44MTI1LDIxNy43NSBMMjc2MS44NzUsMjE3Ljc1IFogTTI3NjIuNTYyNSwyMTguNDM3NSBRMjc2Mi41NjI1LDIxOC40Mzc1IDI3NjIuNTYyNSwyMDkuMjUgTDI3NjAuODEyNSwyMDkuMjUgUTI3NjAuODEyNSwyMDkuMjUgMjc2MC44MTI1LDIxOC40Mzc1IEwyNzYyLjU2MjUsMjE4LjQzNzUgWiBNMjc2Ni4xMjUsMjE4LjQzNzUgTDI3NjcuODc1LDIxOC40Mzc1IFEyNzY3Ljg3NSwyMTguNDM3NSAyNzY3Ljg3NSwyMTUuNjI1IEwyNzY2LjEyNSwyMTUuNjI1IFEyNzY2LjEyNSwyMTUuNjI1IDI3NjYuMTI1LDIxOC40Mzc1IFogTTI3NjYuMTI1LDIwOS4yNSBRMjc2Ni4xMjUsMjA5LjI1IDI3NjYuMTI1LDIxMi4wNjI1IEwyNzY3Ljg3NSwyMTIuMDYyNSBRMjc2Ny44NzUsMjEyLjA2MjUgMjc2Ny44NzUsMjA5LjI1IEwyNzY2LjEyNSwyMDkuMjUgWiBNMjc2MS44NzUsMjA5LjkzNzUgTDI3NjYuODEyNSwyMDkuOTM3NSBMMjc2Ni44MTI1LDIwOC4xODc1IEwyNzYxLjg3NSwyMDguMTg3NSBMMjc2MS44NzUsMjA5LjkzNzUgWiAiIGZpbGw9IiMwMDAwMDAiLz48dGV4dCBmaWxsPSIjMDAwMDAwIiBmb250LWZhbWlseT0ic2Fucy1zZXJpZiIgZm9udC1zaXplPSIxNCIgbGVuZ3RoQWRqdXN0PSJzcGFjaW5nIiB0ZXh0TGVuZ3RoPSIxMjAiIHg9IjI3ODQuNzUiIHk9IjIxOS4yNDIyIj5TYW11cmFpRmlsZVJlYWRlcjwvdGV4dD48bGluZSBzdHlsZT0ic3Ryb2tlOiMxODE4MTg7c3Ryb2tlLXdpZHRoOjAuNTsiIHgxPSIyNjgyLjUiIHgyPSIyOTc0LjUiIHkxPSIyMjkuNSIgeTI9IjIyOS41Ii8+PGxpbmUgc3R5bGU9InN0cm9rZTojMTgxODE4O3N0cm9rZS13aWR0aDowLjU7IiB4MT0iMjY4Mi41IiB4Mj0iMjk3NC41IiB5MT0iMjM3LjUiIHkyPSIyMzcuNSIvPjxlbGxpcHNlIGN4PSIyNjkyLjUiIGN5PSIyNTAuNDkyMiIgZmlsbD0iIzg0QkU4NCIgcng9IjMiIHJ5PSIzIiBzdHlsZT0ic3Ryb2tlOiMwMzgwNDg7c3Ryb2tlLXdpZHRoOjEuMDsiLz48dGV4dCBmaWxsPSIjMDAwMDAwIiBmb250LWZhbWlseT0ic2Fucy1zZXJpZiIgZm9udC1zaXplPSIxNCIgbGVuZ3RoQWRqdXN0PSJzcGFjaW5nIiB0ZXh0TGVuZ3RoPSIyNjgiIHg9IjI3MDEuNSIgeT0iMjU0LjczNDQiPlJlYWRGaWxlKHBhdGg6c3RyaW5nKSA6IFN1ZG9rdUZpbGVJbmZvPC90ZXh0PjwvZz48IS0tY2xhc3MgU2l4QnlTaXhGaWxlUmVhZGVyLS0+PGcgaWQ9ImVsZW1fU2l4QnlTaXhGaWxlUmVhZGVyIj48cmVjdCBjb2RlTGluZT0iMTMyIiBmaWxsPSIjRjFGMUYxIiBoZWlnaHQ9IjYyLjk4NDQiIGlkPSJTaXhCeVNpeEZpbGVSZWFkZXIiIHJ4PSIyLjUiIHJ5PSIyLjUiIHN0eWxlPSJzdHJva2U6IzE4MTgxODtzdHJva2Utd2lkdGg6MC41OyIgd2lkdGg9IjI5NCIgeD0iMzAxMC41IiB5PSIxOTcuNSIvPjxlbGxpcHNlIGN4PSIzMDkwLjI1IiBjeT0iMjEzLjUiIGZpbGw9IiNBREQxQjIiIHJ4PSIxMSIgcnk9IjExIiBzdHlsZT0ic3Ryb2tlOiMxODE4MTg7c3Ryb2tlLXdpZHRoOjEuMDsiLz48cGF0aCBkPSJNMzA4Ny44NzUsMjE3Ljc1IEwzMDg3Ljg3NSwyMTkuNSBMMzA5Mi44MTI1LDIxOS41IEwzMDkyLjgxMjUsMjE3Ljc1IEwzMDg3Ljg3NSwyMTcuNzUgWiBNMzA4OC41NjI1LDIxOC40Mzc1IFEzMDg4LjU2MjUsMjE4LjQzNzUgMzA4OC41NjI1LDIwOS4yNSBMMzA4Ni44MTI1LDIwOS4yNSBRMzA4Ni44MTI1LDIwOS4yNSAzMDg2LjgxMjUsMjE4LjQzNzUgTDMwODguNTYyNSwyMTguNDM3NSBaIE0zMDkyLjEyNSwyMTguNDM3NSBMMzA5My44NzUsMjE4LjQzNzUgUTMwOTMuODc1LDIxOC40Mzc1IDMwOTMuODc1LDIxNS42MjUgTDMwOTIuMTI1LDIxNS42MjUgUTMwOTIuMTI1LDIxNS42MjUgMzA5Mi4xMjUsMjE4LjQzNzUgWiBNMzA5Mi4xMjUsMjA5LjI1IFEzMDkyLjEyNSwyMDkuMjUgMzA5Mi4xMjUsMjEyLjA2MjUgTDMwOTMuODc1LDIxMi4wNjI1IFEzMDkzLjg3NSwyMTIuMDYyNSAzMDkzLjg3NSwyMDkuMjUgTDMwOTIuMTI1LDIwOS4yNSBaIE0zMDg3Ljg3NSwyMDkuOTM3NSBMMzA5Mi44MTI1LDIwOS45Mzc1IEwzMDkyLjgxMjUsMjA4LjE4NzUgTDMwODcuODc1LDIwOC4xODc1IEwzMDg3Ljg3NSwyMDkuOTM3NSBaICIgZmlsbD0iIzAwMDAwMCIvPjx0ZXh0IGZpbGw9IiMwMDAwMDAiIGZvbnQtZmFtaWx5PSJzYW5zLXNlcmlmIiBmb250LXNpemU9IjE0IiBsZW5ndGhBZGp1c3Q9InNwYWNpbmciIHRleHRMZW5ndGg9IjEyNiIgeD0iMzExMC43NSIgeT0iMjE5LjI0MjIiPlNpeEJ5U2l4RmlsZVJlYWRlcjwvdGV4dD48bGluZSBzdHlsZT0ic3Ryb2tlOiMxODE4MTg7c3Ryb2tlLXdpZHRoOjAuNTsiIHgxPSIzMDExLjUiIHgyPSIzMzAzLjUiIHkxPSIyMjkuNSIgeTI9IjIyOS41Ii8+PGxpbmUgc3R5bGU9InN0cm9rZTojMTgxODE4O3N0cm9rZS13aWR0aDowLjU7IiB4MT0iMzAxMS41IiB4Mj0iMzMwMy41IiB5MT0iMjM3LjUiIHkyPSIyMzcuNSIvPjxlbGxpcHNlIGN4PSIzMDIxLjUiIGN5PSIyNTAuNDkyMiIgZmlsbD0iIzg0QkU4NCIgcng9IjMiIHJ5PSIzIiBzdHlsZT0ic3Ryb2tlOiMwMzgwNDg7c3Ryb2tlLXdpZHRoOjEuMDsiLz48dGV4dCBmaWxsPSIjMDAwMDAwIiBmb250LWZhbWlseT0ic2Fucy1zZXJpZiIgZm9udC1zaXplPSIxNCIgbGVuZ3RoQWRqdXN0PSJzcGFjaW5nIiB0ZXh0TGVuZ3RoPSIyNjgiIHg9IjMwMzAuNSIgeT0iMjU0LjczNDQiPlJlYWRGaWxlKHBhdGg6c3RyaW5nKSA6IFN1ZG9rdUZpbGVJbmZvPC90ZXh0PjwvZz48IS0tY2xhc3MgUHV6emxlVmlldy0tPjxnIGlkPSJlbGVtX1B1enpsZVZpZXciPjxyZWN0IGNvZGVMaW5lPSIxNDgiIGZpbGw9IiNGMUYxRjEiIGhlaWdodD0iOTIuOTUzMSIgaWQ9IlB1enpsZVZpZXciIHJ4PSIyLjUiIHJ5PSIyLjUiIHN0eWxlPSJzdHJva2U6IzE4MTgxODtzdHJva2Utd2lkdGg6MC41OyIgd2lkdGg9IjMwOSIgeD0iNTY5IiB5PSIxODIuNSIvPjxlbGxpcHNlIGN4PSI2ODMuNzUiIGN5PSIxOTguNSIgZmlsbD0iI0FERDFCMiIgcng9IjExIiByeT0iMTEiIHN0eWxlPSJzdHJva2U6IzE4MTgxODtzdHJva2Utd2lkdGg6MS4wOyIvPjxwYXRoIGQ9Ik02ODEuMzc1LDIwMi43NSBMNjgxLjM3NSwyMDQuNSBMNjg2LjMxMjUsMjA0LjUgTDY4Ni4zMTI1LDIwMi43NSBMNjgxLjM3NSwyMDIuNzUgWiBNNjgyLjA2MjUsMjAzLjQzNzUgUTY4Mi4wNjI1LDIwMy40Mzc1IDY4Mi4wNjI1LDE5NC4yNSBMNjgwLjMxMjUsMTk0LjI1IFE2ODAuMzEyNSwxOTQuMjUgNjgwLjMxMjUsMjAzLjQzNzUgTDY4Mi4wNjI1LDIwMy40Mzc1IFogTTY4NS42MjUsMjAzLjQzNzUgTDY4Ny4zNzUsMjAzLjQzNzUgUTY4Ny4zNzUsMjAzLjQzNzUgNjg3LjM3NSwyMDAuNjI1IEw2ODUuNjI1LDIwMC42MjUgUTY4NS42MjUsMjAwLjYyNSA2ODUuNjI1LDIwMy40Mzc1IFogTTY4NS42MjUsMTk0LjI1IFE2ODUuNjI1LDE5NC4yNSA2ODUuNjI1LDE5Ny4wNjI1IEw2ODcuMzc1LDE5Ny4wNjI1IFE2ODcuMzc1LDE5Ny4wNjI1IDY4Ny4zNzUsMTk0LjI1IEw2ODUuNjI1LDE5NC4yNSBaIE02ODEuMzc1LDE5NC45Mzc1IEw2ODYuMzEyNSwxOTQuOTM3NSBMNjg2LjMxMjUsMTkzLjE4NzUgTDY4MS4zNzUsMTkzLjE4NzUgTDY4MS4zNzUsMTk0LjkzNzUgWiAiIGZpbGw9IiMwMDAwMDAiLz48dGV4dCBmaWxsPSIjMDAwMDAwIiBmb250LWZhbWlseT0ic2Fucy1zZXJpZiIgZm9udC1zaXplPSIxNCIgbGVuZ3RoQWRqdXN0PSJzcGFjaW5nIiB0ZXh0TGVuZ3RoPSI3MSIgeD0iNzA0LjI1IiB5PSIyMDQuMjQyMiI+UHV6emxlVmlldzwvdGV4dD48bGluZSBzdHlsZT0ic3Ryb2tlOiMxODE4MTg7c3Ryb2tlLXdpZHRoOjAuNTsiIHgxPSI1NzAiIHgyPSI4NzciIHkxPSIyMTQuNSIgeTI9IjIxNC41Ii8+PGxpbmUgc3R5bGU9InN0cm9rZTojMTgxODE4O3N0cm9rZS13aWR0aDowLjU7IiB4MT0iNTcwIiB4Mj0iODc3IiB5MT0iMjIyLjUiIHkyPSIyMjIuNSIvPjxlbGxpcHNlIGN4PSI1ODAiIGN5PSIyMzUuNDkyMiIgZmlsbD0iIzg0QkU4NCIgcng9IjMiIHJ5PSIzIiBzdHlsZT0ic3Ryb2tlOiMwMzgwNDg7c3Ryb2tlLXdpZHRoOjEuMDsiLz48dGV4dCBmaWxsPSIjMDAwMDAwIiBmb250LWZhbWlseT0ic2Fucy1zZXJpZiIgZm9udC1zaXplPSIxNCIgbGVuZ3RoQWRqdXN0PSJzcGFjaW5nIiB0ZXh0TGVuZ3RoPSIyODMiIHg9IjU4OSIgeT0iMjM5LjczNDQiPlB1enpsZVZpZXcocHV6emxlOlB1enpsZSwgcGxheWVyOlBsYXllcik8L3RleHQ+PGVsbGlwc2UgY3g9IjU4MCIgY3k9IjI1MC40NzY2IiBmaWxsPSIjODRCRTg0IiByeD0iMyIgcnk9IjMiIHN0eWxlPSJzdHJva2U6IzAzODA0ODtzdHJva2Utd2lkdGg6MS4wOyIvPjx0ZXh0IGZpbGw9IiMwMDAwMDAiIGZvbnQtZmFtaWx5PSJzYW5zLXNlcmlmIiBmb250LXNpemU9IjE0IiBsZW5ndGhBZGp1c3Q9InNwYWNpbmciIHRleHRMZW5ndGg9IjI2OCIgeD0iNTg5IiB5PSIyNTQuNzE4OCI+Y2hhbmdlTW9kZShuZXh0U3RhdGU6TW9kZVN0YXRlKSA6IHZvaWQ8L3RleHQ+PGVsbGlwc2UgY3g9IjU4MCIgY3k9IjI2NS40NjA5IiBmaWxsPSIjODRCRTg0IiByeD0iMyIgcnk9IjMiIHN0eWxlPSJzdHJva2U6IzAzODA0ODtzdHJva2Utd2lkdGg6MS4wOyIvPjx0ZXh0IGZpbGw9IiMwMDAwMDAiIGZvbnQtZmFtaWx5PSJzYW5zLXNlcmlmIiBmb250LXNpemU9IjE0IiBsZW5ndGhBZGp1c3Q9InNwYWNpbmciIHRleHRMZW5ndGg9IjEwMCIgeD0iNTg5IiB5PSIyNjkuNzAzMSI+UHJpbnQoKSA6IHZvaWQ8L3RleHQ+PC9nPjwhLS1jbGFzcyBQbGF5ZXItLT48ZyBpZD0iZWxlbV9QbGF5ZXIiPjxyZWN0IGNvZGVMaW5lPSIxNzQiIGZpbGw9IiNGMUYxRjEiIGhlaWdodD0iMTA3LjkzNzUiIGlkPSJQbGF5ZXIiIHJ4PSIyLjUiIHJ5PSIyLjUiIHN0eWxlPSJzdHJva2U6IzE4MTgxODtzdHJva2Utd2lkdGg6MC41OyIgd2lkdGg9IjIwMyIgeD0iNTQ1IiB5PSIzNDMiLz48ZWxsaXBzZSBjeD0iNjIxLjI1IiBjeT0iMzU5IiBmaWxsPSIjQUREMUIyIiByeD0iMTEiIHJ5PSIxMSIgc3R5bGU9InN0cm9rZTojMTgxODE4O3N0cm9rZS13aWR0aDoxLjA7Ii8+PHBhdGggZD0iTTYxOC44NzUsMzYzLjI1IEw2MTguODc1LDM2NSBMNjIzLjgxMjUsMzY1IEw2MjMuODEyNSwzNjMuMjUgTDYxOC44NzUsMzYzLjI1IFogTTYxOS41NjI1LDM2My45Mzc1IFE2MTkuNTYyNSwzNjMuOTM3NSA2MTkuNTYyNSwzNTQuNzUgTDYxNy44MTI1LDM1NC43NSBRNjE3LjgxMjUsMzU0Ljc1IDYxNy44MTI1LDM2My45Mzc1IEw2MTkuNTYyNSwzNjMuOTM3NSBaIE02MjMuMTI1LDM2My45Mzc1IEw2MjQuODc1LDM2My45Mzc1IFE2MjQuODc1LDM2My45Mzc1IDYyNC44NzUsMzYxLjEyNSBMNjIzLjEyNSwzNjEuMTI1IFE2MjMuMTI1LDM2MS4xMjUgNjIzLjEyNSwzNjMuOTM3NSBaIE02MjMuMTI1LDM1NC43NSBRNjIzLjEyNSwzNTQuNzUgNjIzLjEyNSwzNTcuNTYyNSBMNjI0Ljg3NSwzNTcuNTYyNSBRNjI0Ljg3NSwzNTcuNTYyNSA2MjQuODc1LDM1NC43NSBMNjIzLjEyNSwzNTQuNzUgWiBNNjE4Ljg3NSwzNTUuNDM3NSBMNjIzLjgxMjUsMzU1LjQzNzUgTDYyMy44MTI1LDM1My42ODc1IEw2MTguODc1LDM1My42ODc1IEw2MTguODc1LDM1NS40Mzc1IFogIiBmaWxsPSIjMDAwMDAwIi8+PHRleHQgZmlsbD0iIzAwMDAwMCIgZm9udC1mYW1pbHk9InNhbnMtc2VyaWYiIGZvbnQtc2l6ZT0iMTQiIGxlbmd0aEFkanVzdD0ic3BhY2luZyIgdGV4dExlbmd0aD0iNDIiIHg9IjY0MS43NSIgeT0iMzY0Ljc0MjIiPlBsYXllcjwvdGV4dD48bGluZSBzdHlsZT0ic3Ryb2tlOiMxODE4MTg7c3Ryb2tlLXdpZHRoOjAuNTsiIHgxPSI1NDYiIHgyPSI3NDciIHkxPSIzNzUiIHkyPSIzNzUiLz48bGluZSBzdHlsZT0ic3Ryb2tlOiMxODE4MTg7c3Ryb2tlLXdpZHRoOjAuNTsiIHgxPSI1NDYiIHgyPSI3NDciIHkxPSIzODMiIHkyPSIzODMiLz48ZWxsaXBzZSBjeD0iNTU2IiBjeT0iMzk1Ljk5MjIiIGZpbGw9IiM4NEJFODQiIHJ4PSIzIiByeT0iMyIgc3R5bGU9InN0cm9rZTojMDM4MDQ4O3N0cm9rZS13aWR0aDoxLjA7Ii8+PHRleHQgZmlsbD0iIzAwMDAwMCIgZm9udC1mYW1pbHk9InNhbnMtc2VyaWYiIGZvbnQtc2l6ZT0iMTQiIGxlbmd0aEFkanVzdD0ic3BhY2luZyIgdGV4dExlbmd0aD0iNTgiIHg9IjU2NSIgeT0iNDAwLjIzNDQiPlBsYXllcigpPC90ZXh0PjxlbGxpcHNlIGN4PSI1NTYiIGN5PSI0MTAuOTc2NiIgZmlsbD0iIzg0QkU4NCIgcng9IjMiIHJ5PSIzIiBzdHlsZT0ic3Ryb2tlOiMwMzgwNDg7c3Ryb2tlLXdpZHRoOjEuMDsiLz48dGV4dCBmaWxsPSIjMDAwMDAwIiBmb250LWZhbWlseT0ic2Fucy1zZXJpZiIgZm9udC1zaXplPSIxNCIgbGVuZ3RoQWRqdXN0PSJzcGFjaW5nIiB0ZXh0TGVuZ3RoPSIxNzciIHg9IjU2NSIgeT0iNDE1LjIxODgiPk1vdmUoY29vcmRzOkNvb3JkKSA6IHZvaWQ8L3RleHQ+PGVsbGlwc2UgY3g9IjU1NiIgY3k9IjQyNS45NjA5IiBmaWxsPSIjODRCRTg0IiByeD0iMyIgcnk9IjMiIHN0eWxlPSJzdHJva2U6IzAzODA0ODtzdHJva2Utd2lkdGg6MS4wOyIvPjx0ZXh0IGZpbGw9IiMwMDAwMDAiIGZvbnQtZmFtaWx5PSJzYW5zLXNlcmlmIiBmb250LXNpemU9IjE0IiBsZW5ndGhBZGp1c3Q9InNwYWNpbmciIHRleHRMZW5ndGg9IjEyMSIgeD0iNTY1IiB5PSI0MzAuMjAzMSI+Z2V0WENvb3JkKCkgOiBpbnQ8L3RleHQ+PGVsbGlwc2UgY3g9IjU1NiIgY3k9IjQ0MC45NDUzIiBmaWxsPSIjODRCRTg0IiByeD0iMyIgcnk9IjMiIHN0eWxlPSJzdHJva2U6IzAzODA0ODtzdHJva2Utd2lkdGg6MS4wOyIvPjx0ZXh0IGZpbGw9IiMwMDAwMDAiIGZvbnQtZmFtaWx5PSJzYW5zLXNlcmlmIiBmb250LXNpemU9IjE0IiBsZW5ndGhBZGp1c3Q9InNwYWNpbmciIHRleHRMZW5ndGg9IjEyMSIgeD0iNTY1IiB5PSI0NDUuMTg3NSI+Z2V0WUNvb3JkKCkgOiBpbnQ8L3RleHQ+PC9nPjwhLS1jbGFzcyBHYW1lQ29udHJvbGxlci0tPjxnIGlkPSJlbGVtX0dhbWVDb250cm9sbGVyIj48cmVjdCBjb2RlTGluZT0iMTU4IiBmaWxsPSIjRjFGMUYxIiBoZWlnaHQ9IjkyLjk1MzEiIGlkPSJHYW1lQ29udHJvbGxlciIgcng9IjIuNSIgcnk9IjIuNSIgc3R5bGU9InN0cm9rZTojMTgxODE4O3N0cm9rZS13aWR0aDowLjU7IiB3aWR0aD0iMjYwIiB4PSIzODYuNSIgeT0iMTQuNSIvPjxlbGxpcHNlIGN4PSI0NjIuNzUiIGN5PSIzMC41IiBmaWxsPSIjQUREMUIyIiByeD0iMTEiIHJ5PSIxMSIgc3R5bGU9InN0cm9rZTojMTgxODE4O3N0cm9rZS13aWR0aDoxLjA7Ii8+PHBhdGggZD0iTTQ2MC4zNzUsMzQuNzUgTDQ2MC4zNzUsMzYuNSBMNDY1LjMxMjUsMzYuNSBMNDY1LjMxMjUsMzQuNzUgTDQ2MC4zNzUsMzQuNzUgWiBNNDYxLjA2MjUsMzUuNDM3NSBRNDYxLjA2MjUsMzUuNDM3NSA0NjEuMDYyNSwyNi4yNSBMNDU5LjMxMjUsMjYuMjUgUTQ1OS4zMTI1LDI2LjI1IDQ1OS4zMTI1LDM1LjQzNzUgTDQ2MS4wNjI1LDM1LjQzNzUgWiBNNDY0LjYyNSwzNS40Mzc1IEw0NjYuMzc1LDM1LjQzNzUgUTQ2Ni4zNzUsMzUuNDM3NSA0NjYuMzc1LDMyLjYyNSBMNDY0LjYyNSwzMi42MjUgUTQ2NC42MjUsMzIuNjI1IDQ2NC42MjUsMzUuNDM3NSBaIE00NjQuNjI1LDI2LjI1IFE0NjQuNjI1LDI2LjI1IDQ2NC42MjUsMjkuMDYyNSBMNDY2LjM3NSwyOS4wNjI1IFE0NjYuMzc1LDI5LjA2MjUgNDY2LjM3NSwyNi4yNSBMNDY0LjYyNSwyNi4yNSBaIE00NjAuMzc1LDI2LjkzNzUgTDQ2NS4zMTI1LDI2LjkzNzUgTDQ2NS4zMTI1LDI1LjE4NzUgTDQ2MC4zNzUsMjUuMTg3NSBMNDYwLjM3NSwyNi45Mzc1IFogIiBmaWxsPSIjMDAwMDAwIi8+PHRleHQgZmlsbD0iIzAwMDAwMCIgZm9udC1mYW1pbHk9InNhbnMtc2VyaWYiIGZvbnQtc2l6ZT0iMTQiIGxlbmd0aEFkanVzdD0ic3BhY2luZyIgdGV4dExlbmd0aD0iOTkiIHg9IjQ4My4yNSIgeT0iMzYuMjQyMiI+R2FtZUNvbnRyb2xsZXI8L3RleHQ+PGxpbmUgc3R5bGU9InN0cm9rZTojMTgxODE4O3N0cm9rZS13aWR0aDowLjU7IiB4MT0iMzg3LjUiIHgyPSI2NDUuNSIgeTE9IjQ2LjUiIHkyPSI0Ni41Ii8+PGxpbmUgc3R5bGU9InN0cm9rZTojMTgxODE4O3N0cm9rZS13aWR0aDowLjU7IiB4MT0iMzg3LjUiIHgyPSI2NDUuNSIgeTE9IjU0LjUiIHkyPSI1NC41Ii8+PGVsbGlwc2UgY3g9IjM5Ny41IiBjeT0iNjcuNDkyMiIgZmlsbD0iIzg0QkU4NCIgcng9IjMiIHJ5PSIzIiBzdHlsZT0ic3Ryb2tlOiMwMzgwNDg7c3Ryb2tlLXdpZHRoOjEuMDsiLz48dGV4dCBmaWxsPSIjMDAwMDAwIiBmb250LWZhbWlseT0ic2Fucy1zZXJpZiIgZm9udC1zaXplPSIxNCIgbGVuZ3RoQWRqdXN0PSJzcGFjaW5nIiB0ZXh0TGVuZ3RoPSIxMTUiIHg9IjQwNi41IiB5PSI3MS43MzQ0Ij5HYW1lQ29udHJvbGxlcigpPC90ZXh0PjxlbGxpcHNlIGN4PSIzOTcuNSIgY3k9IjgyLjQ3NjYiIGZpbGw9IiM4NEJFODQiIHJ4PSIzIiByeT0iMyIgc3R5bGU9InN0cm9rZTojMDM4MDQ4O3N0cm9rZS13aWR0aDoxLjA7Ii8+PHRleHQgZmlsbD0iIzAwMDAwMCIgZm9udC1mYW1pbHk9InNhbnMtc2VyaWYiIGZvbnQtc2l6ZT0iMTQiIGxlbmd0aEFkanVzdD0ic3BhY2luZyIgdGV4dExlbmd0aD0iMjM0IiB4PSI0MDYuNSIgeT0iODYuNzE4OCI+TW92ZVBsYXllcihuZXdDb29yZDpDb29yZCkgOiB2b2lkPC90ZXh0PjxlbGxpcHNlIGN4PSIzOTcuNSIgY3k9Ijk3LjQ2MDkiIGZpbGw9IiM4NEJFODQiIHJ4PSIzIiByeT0iMyIgc3R5bGU9InN0cm9rZTojMDM4MDQ4O3N0cm9rZS13aWR0aDoxLjA7Ii8+PHRleHQgZmlsbD0iIzAwMDAwMCIgZm9udC1mYW1pbHk9InNhbnMtc2VyaWYiIGZvbnQtc2l6ZT0iMTQiIGxlbmd0aEFkanVzdD0ic3BhY2luZyIgdGV4dExlbmd0aD0iMjE0IiB4PSI0MDYuNSIgeT0iMTAxLjcwMzEiPkVudGVyTnVtYmVyKG51bWJlcjppbnQpIDogdm9pZDwvdGV4dD48L2c+PCEtLWNsYXNzIElucHV0SGFuZGxlci0tPjxnIGlkPSJlbGVtX0lucHV0SGFuZGxlciI+PHJlY3QgY29kZUxpbmU9IjE2OCIgZmlsbD0iI0YxRjFGMSIgaGVpZ2h0PSI3Ny45Njg4IiBpZD0iSW5wdXRIYW5kbGVyIiByeD0iMi41IiByeT0iMi41IiBzdHlsZT0ic3Ryb2tlOiMxODE4MTg7c3Ryb2tlLXdpZHRoOjAuNTsiIHdpZHRoPSIzMzEiIHg9IjI2ODIiIHk9IjIyIi8+PGVsbGlwc2UgY3g9IjI4MDEuMjUiIGN5PSIzOCIgZmlsbD0iI0FERDFCMiIgcng9IjExIiByeT0iMTEiIHN0eWxlPSJzdHJva2U6IzE4MTgxODtzdHJva2Utd2lkdGg6MS4wOyIvPjxwYXRoIGQ9Ik0yNzk4Ljg3NSw0Mi4yNSBMMjc5OC44NzUsNDQgTDI4MDMuODEyNSw0NCBMMjgwMy44MTI1LDQyLjI1IEwyNzk4Ljg3NSw0Mi4yNSBaIE0yNzk5LjU2MjUsNDIuOTM3NSBRMjc5OS41NjI1LDQyLjkzNzUgMjc5OS41NjI1LDMzLjc1IEwyNzk3LjgxMjUsMzMuNzUgUTI3OTcuODEyNSwzMy43NSAyNzk3LjgxMjUsNDIuOTM3NSBMMjc5OS41NjI1LDQyLjkzNzUgWiBNMjgwMy4xMjUsNDIuOTM3NSBMMjgwNC44NzUsNDIuOTM3NSBRMjgwNC44NzUsNDIuOTM3NSAyODA0Ljg3NSw0MC4xMjUgTDI4MDMuMTI1LDQwLjEyNSBRMjgwMy4xMjUsNDAuMTI1IDI4MDMuMTI1LDQyLjkzNzUgWiBNMjgwMy4xMjUsMzMuNzUgUTI4MDMuMTI1LDMzLjc1IDI4MDMuMTI1LDM2LjU2MjUgTDI4MDQuODc1LDM2LjU2MjUgUTI4MDQuODc1LDM2LjU2MjUgMjgwNC44NzUsMzMuNzUgTDI4MDMuMTI1LDMzLjc1IFogTTI3OTguODc1LDM0LjQzNzUgTDI4MDMuODEyNSwzNC40Mzc1IEwyODAzLjgxMjUsMzIuNjg3NSBMMjc5OC44NzUsMzIuNjg3NSBMMjc5OC44NzUsMzQuNDM3NSBaICIgZmlsbD0iIzAwMDAwMCIvPjx0ZXh0IGZpbGw9IiMwMDAwMDAiIGZvbnQtZmFtaWx5PSJzYW5zLXNlcmlmIiBmb250LXNpemU9IjE0IiBsZW5ndGhBZGp1c3Q9InNwYWNpbmciIHRleHRMZW5ndGg9Ijg0IiB4PSIyODIxLjc1IiB5PSI0My43NDIyIj5JbnB1dEhhbmRsZXI8L3RleHQ+PGxpbmUgc3R5bGU9InN0cm9rZTojMTgxODE4O3N0cm9rZS13aWR0aDowLjU7IiB4MT0iMjY4MyIgeDI9IjMwMTIiIHkxPSI1NCIgeTI9IjU0Ii8+PGxpbmUgc3R5bGU9InN0cm9rZTojMTgxODE4O3N0cm9rZS13aWR0aDowLjU7IiB4MT0iMjY4MyIgeDI9IjMwMTIiIHkxPSI2MiIgeTI9IjYyIi8+PGVsbGlwc2UgY3g9IjI2OTMiIGN5PSI3NC45OTIyIiBmaWxsPSIjODRCRTg0IiByeD0iMyIgcnk9IjMiIHN0eWxlPSJzdHJva2U6IzAzODA0ODtzdHJva2Utd2lkdGg6MS4wOyIvPjx0ZXh0IGZpbGw9IiMwMDAwMDAiIGZvbnQtZmFtaWx5PSJzYW5zLXNlcmlmIiBmb250LXNpemU9IjE0IiBsZW5ndGhBZGp1c3Q9InNwYWNpbmciIHRleHRMZW5ndGg9IjMwNSIgeD0iMjcwMiIgeT0iNzkuMjM0NCI+SW5wdXRIYW5kbGVyKGdhbWVDb250cm9sbGVyOkdhbWVDb250cm9sbGVyKTwvdGV4dD48ZWxsaXBzZSBjeD0iMjY5MyIgY3k9Ijg5Ljk3NjYiIGZpbGw9IiM4NEJFODQiIHJ4PSIzIiByeT0iMyIgc3R5bGU9InN0cm9rZTojMDM4MDQ4O3N0cm9rZS13aWR0aDoxLjA7Ii8+PHRleHQgZmlsbD0iIzAwMDAwMCIgZm9udC1mYW1pbHk9InNhbnMtc2VyaWYiIGZvbnQtc2l6ZT0iMTQiIGxlbmd0aEFkanVzdD0ic3BhY2luZyIgdGV4dExlbmd0aD0iMTIxIiB4PSIyNzAyIiB5PSI5NC4yMTg4Ij5HZXRJbnB1dCgpIDogdm9pZDwvdGV4dD48L2c+PCEtLXJldmVyc2UgbGluayBJQnVpbGRlciB0byBCdWlsZGVyLS0+PGcgaWQ9ImxpbmtfSUJ1aWxkZXJfQnVpbGRlciI+PHBhdGggY29kZUxpbmU9IjciIGQ9Ik0xNDgzLjUsMTMzLjQ0IEMxNDgzLjUsMTUyLjQ5IDE0ODMuNSwxNTUuOTMgMTQ4My41LDE3NC45NSAiIGZpbGw9Im5vbmUiIGlkPSJJQnVpbGRlci1iYWNrdG8tQnVpbGRlciIgc3R5bGU9InN0cm9rZTojMTgxODE4O3N0cm9rZS13aWR0aDoxLjA7Ii8+PHBvbHlnb24gZmlsbD0ibm9uZSIgcG9pbnRzPSIxNDgzLjUsMTE1LjQ0LDE0NzcuNSwxMzMuNDQsMTQ4OS41LDEzMy40NCwxNDgzLjUsMTE1LjQ0IiBzdHlsZT0ic3Ryb2tlOiMxODE4MTg7c3Ryb2tlLXdpZHRoOjEuMDsiLz48L2c+PCEtLXJldmVyc2UgbGluayBCdWlsZGVyIHRvIEppZ3Nhd0J1aWxkZXItLT48ZyBpZD0ibGlua19CdWlsZGVyX0ppZ3Nhd0J1aWxkZXIiPjxwYXRoIGNvZGVMaW5lPSIyMyIgZD0iTTE0MTAuNDQ5MywyOTUuMTk0IEMxMzg2LjIxOTMsMzE2LjgxNCAxMzcxLjk0LDMyOS41NiAxMzQ4LjY1LDM1MC4zNSAiIGZpbGw9Im5vbmUiIGlkPSJCdWlsZGVyLWJhY2t0by1KaWdzYXdCdWlsZGVyIiBzdHlsZT0ic3Ryb2tlOiMxODE4MTg7c3Ryb2tlLXdpZHRoOjEuMDsiLz48cG9seWdvbiBmaWxsPSJub25lIiBwb2ludHM9IjE0MjMuODgsMjgzLjIxLDE0MDYuNDU0NiwyOTAuNzE3MSwxNDE0LjQ0MzksMjk5LjY3MDksMTQyMy44OCwyODMuMjEiIHN0eWxlPSJzdHJva2U6IzE4MTgxODtzdHJva2Utd2lkdGg6MS4wOyIvPjwvZz48IS0tcmV2ZXJzZSBsaW5rIEJ1aWxkZXIgdG8gU2FtdXJhaUJ1aWxkZXItLT48ZyBpZD0ibGlua19CdWlsZGVyX1NhbXVyYWlCdWlsZGVyIj48cGF0aCBjb2RlTGluZT0iMzEiIGQ9Ik0xNTU2LjkwMjUsMjk1LjE1ODMgQzE1ODEuMjYyNSwzMTYuNzc4MyAxNTk1LjY2LDMyOS41NiAxNjE5LjA3LDM1MC4zNSAiIGZpbGw9Im5vbmUiIGlkPSJCdWlsZGVyLWJhY2t0by1TYW11cmFpQnVpbGRlciIgc3R5bGU9InN0cm9rZTojMTgxODE4O3N0cm9rZS13aWR0aDoxLjA7Ii8+PHBvbHlnb24gZmlsbD0ibm9uZSIgcG9pbnRzPSIxNTQzLjQ0LDI4My4yMSwxNTUyLjkxOTgsMjk5LjY0NTgsMTU2MC44ODUzLDI5MC42NzA4LDE1NDMuNDQsMjgzLjIxIiBzdHlsZT0ic3Ryb2tlOiMxODE4MTg7c3Ryb2tlLXdpZHRoOjEuMDsiLz48L2c+PCEtLXJldmVyc2UgbGluayBJQ29tcG9uZW50IHRvIENlbGwtLT48ZyBpZD0ibGlua19JQ29tcG9uZW50X0NlbGwiPjxwYXRoIGNvZGVMaW5lPSIzNyIgZD0iTTE5OS4xMjU0LDEwMS4yMTcxIEMxODQuNjg1NCwxMzAuNDM3MSAxNjcuNzUsMTY0Ljc0IDE1MS43MSwxOTcuMjEgIiBmaWxsPSJub25lIiBpZD0iSUNvbXBvbmVudC1iYWNrdG8tQ2VsbCIgc3R5bGU9InN0cm9rZTojMTgxODE4O3N0cm9rZS13aWR0aDoxLjA7Ii8+PHBvbHlnb24gZmlsbD0ibm9uZSIgcG9pbnRzPSIyMDcuMSw4NS4wOCwxOTMuNzQ2Myw5OC41NTg5LDIwNC41MDQ0LDEwMy44NzUzLDIwNy4xLDg1LjA4IiBzdHlsZT0ic3Ryb2tlOiMxODE4MTg7c3Ryb2tlLXdpZHRoOjEuMDsiLz48L2c+PCEtLWxpbmsgQ2VsbCB0byBDb29yZC0tPjxnIGlkPSJsaW5rX0NlbGxfQ29vcmQiPjxwYXRoIGNvZGVMaW5lPSIzOCIgZD0iTTEzNi41LDI2MC42NyBDMTM2LjUsMzIyLjIxIDEzNi41LDQ1NS4wNSAxMzYuNSw1MjcuMzMgIiBmaWxsPSJub25lIiBpZD0iQ2VsbC10by1Db29yZCIgc3R5bGU9InN0cm9rZTojMTgxODE4O3N0cm9rZS13aWR0aDoxLjA7Ii8+PHBvbHlnb24gZmlsbD0iIzE4MTgxOCIgcG9pbnRzPSIxMzYuNSw1MzMuMzMsMTQwLjUsNTI0LjMzLDEzNi41LDUyOC4zMywxMzIuNSw1MjQuMzMsMTM2LjUsNTMzLjMzIiBzdHlsZT0ic3Ryb2tlOiMxODE4MTg7c3Ryb2tlLXdpZHRoOjEuMDsiLz48dGV4dCBmaWxsPSIjMDAwMDAwIiBmb250LWZhbWlseT0ic2Fucy1zZXJpZiIgZm9udC1zaXplPSIxMyIgbGVuZ3RoQWRqdXN0PSJzcGFjaW5nIiB0ZXh0TGVuZ3RoPSIzNSIgeD0iOTguNjAxNiIgeT0iNTIzLjg5MjQiPkNvb3JkPC90ZXh0PjwvZz48IS0tcmV2ZXJzZSBsaW5rIElDb21wb25lbnQgdG8gQ2x1c3Rlci0tPjxnIGlkPSJsaW5rX0lDb21wb25lbnRfQ2x1c3RlciI+PHBhdGggY29kZUxpbmU9IjQ0IiBkPSJNMjQ3LjI5MTEsOTkuMzM0NyBDMjY5LjgyMTEsMTI4LjU1NDcgMjk3LjcyLDE2NC43NCAzMjIuNzYsMTk3LjIxICIgZmlsbD0ibm9uZSIgaWQ9IklDb21wb25lbnQtYmFja3RvLUNsdXN0ZXIiIHN0eWxlPSJzdHJva2U6IzE4MTgxODtzdHJva2Utd2lkdGg6MS4wOyIvPjxwb2x5Z29uIGZpbGw9Im5vbmUiIHBvaW50cz0iMjM2LjMsODUuMDgsMjQyLjUzOTUsMTAyLjk5ODQsMjUyLjA0MjYsOTUuNjcxLDIzNi4zLDg1LjA4IiBzdHlsZT0ic3Ryb2tlOiMxODE4MTg7c3Ryb2tlLXdpZHRoOjEuMDsiLz48L2c+PCEtLXJldmVyc2UgbGluayBDbHVzdGVyIHRvIFB1enpsZS0tPjxnIGlkPSJsaW5rX0NsdXN0ZXJfUHV6emxlIj48cGF0aCBjb2RlTGluZT0iNjgiIGQ9Ik0zNTguNDMzMiwyNzguMzA1NiBDMzY1Ljc5MzIsMzA4LjEyNTYgMzcyLjU3LDMzNS41NyAzNzkuOTMsMzY1LjMzICIgZmlsbD0ibm9uZSIgaWQ9IkNsdXN0ZXItYmFja3RvLVB1enpsZSIgc3R5bGU9InN0cm9rZTojMTgxODE4O3N0cm9rZS13aWR0aDoxLjA7Ii8+PHBvbHlnb24gZmlsbD0ibm9uZSIgcG9pbnRzPSIzNTQuMTIsMjYwLjgzLDM1Mi42MDgsMjc5Ljc0MzMsMzY0LjI1ODQsMjc2Ljg2NzgsMzU0LjEyLDI2MC44MyIgc3R5bGU9InN0cm9rZTojMTgxODE4O3N0cm9rZS13aWR0aDoxLjA7Ii8+PC9nPjwhLS1saW5rIFB1enpsZSB0byBTdWRva3VGaWxlSW5mby0tPjxnIGlkPSJsaW5rX1B1enpsZV9TdWRva3VGaWxlSW5mbyI+PHBhdGggY29kZUxpbmU9IjY5IiBkPSJNMzg3LjUsNDI4LjcgQzM4Ny41LDQ1MS4yIDM4Ny41LDQ3Ni42MSAzODcuNSw1MDQuOSAiIGZpbGw9Im5vbmUiIGlkPSJQdXp6bGUtdG8tU3Vkb2t1RmlsZUluZm8iIHN0eWxlPSJzdHJva2U6IzE4MTgxODtzdHJva2Utd2lkdGg6MS4wOyIvPjxwb2x5Z29uIGZpbGw9IiMxODE4MTgiIHBvaW50cz0iMzg3LjUsNTEwLjksMzkxLjUsNTAxLjksMzg3LjUsNTA1LjksMzgzLjUsNTAxLjksMzg3LjUsNTEwLjkiIHN0eWxlPSJzdHJva2U6IzE4MTgxODtzdHJva2Utd2lkdGg6MS4wOyIvPjx0ZXh0IGZpbGw9IiMwMDAwMDAiIGZvbnQtZmFtaWx5PSJzYW5zLXNlcmlmIiBmb250LXNpemU9IjEzIiBsZW5ndGhBZGp1c3Q9InNwYWNpbmciIHRleHRMZW5ndGg9IjUyIiB4PSIzMzIuNDkzOCIgeT0iNTAxLjUwNjEiPkZpbGVJbmZvPC90ZXh0PjwvZz48IS0tcmV2ZXJzZSBsaW5rIE1vZGVTdGF0ZSB0byBDb3JyZWN0aW9uTW9kZVN0YXRlLS0+PGcgaWQ9ImxpbmtfTW9kZVN0YXRlX0NvcnJlY3Rpb25Nb2RlU3RhdGUiPjxwYXRoIGNvZGVMaW5lPSI3NyIgZD0iTTEwODIuMDI2Niw0NTEuMDc0MSBDMTE0MS44NjY2LDQ3OC41NjQxIDEyMDEuNDksNTA1Ljk1IDEyNjEuMzMsNTMzLjQ0ICIgZmlsbD0ibm9uZSIgaWQ9Ik1vZGVTdGF0ZS1iYWNrdG8tQ29ycmVjdGlvbk1vZGVTdGF0ZSIgc3R5bGU9InN0cm9rZTojMTgxODE4O3N0cm9rZS13aWR0aDoxLjA7Ii8+PHBvbHlnb24gZmlsbD0ibm9uZSIgcG9pbnRzPSIxMDY1LjY3LDQ0My41NiwxMDc5LjUyMTksNDU2LjUyNjMsMTA4NC41MzEzLDQ0NS42MjE5LDEwNjUuNjcsNDQzLjU2IiBzdHlsZT0ic3Ryb2tlOiMxODE4MTg7c3Ryb2tlLXdpZHRoOjEuMDsiLz48L2c+PCEtLXJldmVyc2UgbGluayBNb2RlU3RhdGUgdG8gRmluYWxNb2RlU3RhdGUtLT48ZyBpZD0ibGlua19Nb2RlU3RhdGVfRmluYWxNb2RlU3RhdGUiPjxwYXRoIGNvZGVMaW5lPSI4NSIgZD0iTTg4NC43NjY4LDQ1My44MjMgQzg0NC41OTY4LDQ4MS4yNjMgODA4LjUyLDUwNS45MSA3NjguMzUsNTMzLjM0ICIgZmlsbD0ibm9uZSIgaWQ9Ik1vZGVTdGF0ZS1iYWNrdG8tRmluYWxNb2RlU3RhdGUiIHN0eWxlPSJzdHJva2U6IzE4MTgxODtzdHJva2Utd2lkdGg6MS4wOyIvPjxwb2x5Z29uIGZpbGw9Im5vbmUiIHBvaW50cz0iODk5LjYzLDQ0My42Nyw4ODEuMzgyNCw0NDguODY4Niw4ODguMTUxMSw0NTguNzc3NCw4OTkuNjMsNDQzLjY3IiBzdHlsZT0ic3Ryb2tlOiMxODE4MTg7c3Ryb2tlLXdpZHRoOjEuMDsiLz48L2c+PCEtLXJldmVyc2UgbGluayBNb2RlU3RhdGUgdG8gSGVscE1vZGVTdGF0ZS0tPjxnIGlkPSJsaW5rX01vZGVTdGF0ZV9IZWxwTW9kZVN0YXRlIj48cGF0aCBjb2RlTGluZT0iOTMiIGQ9Ik05ODUuOTUwNCw0NjAuODY1NyBDOTk0LjQ0MDQsNDg4LjMwNTcgOTk5Ljg4LDUwNS45MSAxMDA4LjM3LDUzMy4zNCAiIGZpbGw9Im5vbmUiIGlkPSJNb2RlU3RhdGUtYmFja3RvLUhlbHBNb2RlU3RhdGUiIHN0eWxlPSJzdHJva2U6IzE4MTgxODtzdHJva2Utd2lkdGg6MS4wOyIvPjxwb2x5Z29uIGZpbGw9Im5vbmUiIHBvaW50cz0iOTgwLjYzLDQ0My42Nyw5ODAuMjE4NSw0NjIuNjM5Miw5OTEuNjgyMyw0NTkuMDkyMyw5ODAuNjMsNDQzLjY3IiBzdHlsZT0ic3Ryb2tlOiMxODE4MTg7c3Ryb2tlLXdpZHRoOjEuMDsiLz48L2c+PCEtLXJldmVyc2UgbGluayBJRmlsZVJlYWRlciB0byBGb3VyQnlGb3VyRmlsZVJlYWRlci0tPjxnIGlkPSJsaW5rX0lGaWxlUmVhZGVyX0ZvdXJCeUZvdXJGaWxlUmVhZGVyIj48cGF0aCBjb2RlTGluZT0iMTA2IiBkPSJNMjMzNC44NzY0LDk1Ljg1NjkgQzIyMzYuMTk2NCwxMTYuOTE2OSAyMTIxLjE4LDE0My4xNCAyMDA1LjUsMTc1IEMxOTgxLjI3LDE4MS42NyAxOTU1LjI4LDE4OS42NyAxOTMxLjMsMTk3LjQxICIgZmlsbD0ibm9uZSIgaWQ9IklGaWxlUmVhZGVyLWJhY2t0by1Gb3VyQnlGb3VyRmlsZVJlYWRlciIgc3R5bGU9InN0cm9rZTojMTgxODE4O3N0cm9rZS13aWR0aDoxLjA7Ii8+PHBvbHlnb24gZmlsbD0ibm9uZSIgcG9pbnRzPSIyMzUyLjQ4LDkyLjEsMjMzMy42MjQxLDg5Ljk4OSwyMzM2LjEyODcsMTAxLjcyNDgsMjM1Mi40OCw5Mi4xIiBzdHlsZT0ic3Ryb2tlOiMxODE4MTg7c3Ryb2tlLXdpZHRoOjEuMDsiLz48L2c+PCEtLXJldmVyc2UgbGluayBJRmlsZVJlYWRlciB0byBKaWdzYXdGaWxlUmVhZGVyLS0+PGcgaWQ9ImxpbmtfSUZpbGVSZWFkZXJfSmlnc2F3RmlsZVJlYWRlciI+PHBhdGggY29kZUxpbmU9IjExNyIgZD0iTTI0MjIuNzAwMywxMDAuNzQ5NiBDMjM2My41NzAzLDEzMC41ODk2IDIyOTAuMjYsMTY3LjU3IDIyMzEuMTUsMTk3LjQgIiBmaWxsPSJub25lIiBpZD0iSUZpbGVSZWFkZXItYmFja3RvLUppZ3Nhd0ZpbGVSZWFkZXIiIHN0eWxlPSJzdHJva2U6IzE4MTgxODtzdHJva2Utd2lkdGg6MS4wOyIvPjxwb2x5Z29uIGZpbGw9Im5vbmUiIHBvaW50cz0iMjQzOC43Nyw5Mi42NCwyNDE5Ljk5NzEsOTUuMzkzLDI0MjUuNDAzNSwxMDYuMTA2MSwyNDM4Ljc3LDkyLjY0IiBzdHlsZT0ic3Ryb2tlOiMxODE4MTg7c3Ryb2tlLXdpZHRoOjEuMDsiLz48L2c+PCEtLXJldmVyc2UgbGluayBJRmlsZVJlYWRlciB0byBOaW5lQnlOaW5lRmlsZVJlYWRlci0tPjxnIGlkPSJsaW5rX0lGaWxlUmVhZGVyX05pbmVCeU5pbmVGaWxlUmVhZGVyIj48cGF0aCBjb2RlTGluZT0iMTIzIiBkPSJNMjQ5OS41LDExMC44MyBDMjQ5OS41LDE0MC42NSAyNDk5LjUsMTY3LjU3IDI0OTkuNSwxOTcuMzMgIiBmaWxsPSJub25lIiBpZD0iSUZpbGVSZWFkZXItYmFja3RvLU5pbmVCeU5pbmVGaWxlUmVhZGVyIiBzdHlsZT0ic3Ryb2tlOiMxODE4MTg7c3Ryb2tlLXdpZHRoOjEuMDsiLz48cG9seWdvbiBmaWxsPSJub25lIiBwb2ludHM9IjI0OTkuNSw5Mi44MywyNDkzLjUsMTEwLjgzLDI1MDUuNSwxMTAuODMsMjQ5OS41LDkyLjgzIiBzdHlsZT0ic3Ryb2tlOiMxODE4MTg7c3Ryb2tlLXdpZHRoOjEuMDsiLz48L2c+PCEtLXJldmVyc2UgbGluayBJRmlsZVJlYWRlciB0byBTYW11cmFpRmlsZVJlYWRlci0tPjxnIGlkPSJsaW5rX0lGaWxlUmVhZGVyX1NhbXVyYWlGaWxlUmVhZGVyIj48cGF0aCBjb2RlTGluZT0iMTI5IiBkPSJNMjU3Ni4yOTk3LDEwMC43NDk2IEMyNjM1LjQyOTcsMTMwLjU4OTYgMjcwOC43NCwxNjcuNTcgMjc2Ny44NSwxOTcuNCAiIGZpbGw9Im5vbmUiIGlkPSJJRmlsZVJlYWRlci1iYWNrdG8tU2FtdXJhaUZpbGVSZWFkZXIiIHN0eWxlPSJzdHJva2U6IzE4MTgxODtzdHJva2Utd2lkdGg6MS4wOyIvPjxwb2x5Z29uIGZpbGw9Im5vbmUiIHBvaW50cz0iMjU2MC4yMyw5Mi42NCwyNTczLjU5NjUsMTA2LjEwNjEsMjU3OS4wMDI5LDk1LjM5MywyNTYwLjIzLDkyLjY0IiBzdHlsZT0ic3Ryb2tlOiMxODE4MTg7c3Ryb2tlLXdpZHRoOjEuMDsiLz48L2c+PCEtLXJldmVyc2UgbGluayBJRmlsZVJlYWRlciB0byBTaXhCeVNpeEZpbGVSZWFkZXItLT48ZyBpZD0ibGlua19JRmlsZVJlYWRlcl9TaXhCeVNpeEZpbGVSZWFkZXIiPjxwYXRoIGNvZGVMaW5lPSIxMzUiIGQ9Ik0yNjA0LjY1Myw5OC4xMjkyIEMyNjI5LjM2MywxMDYuMDg5MiAyNjM5LjI2LDEwOC42NyAyNjY0LjUsMTE1IEMyODA4LjY3LDE1MS4xNCAyODQ5LjM2LDEzOC43MyAyOTkzLjUsMTc1IEMzMDE4LjYsMTgxLjMyIDMwNDUuNDYsMTg5LjQxIDMwNzAuMDMsMTk3LjM3ICIgZmlsbD0ibm9uZSIgaWQ9IklGaWxlUmVhZGVyLWJhY2t0by1TaXhCeVNpeEZpbGVSZWFkZXIiIHN0eWxlPSJzdHJva2U6IzE4MTgxODtzdHJva2Utd2lkdGg6MS4wOyIvPjxwb2x5Z29uIGZpbGw9Im5vbmUiIHBvaW50cz0iMjU4Ny41Miw5Mi42MSwyNjAyLjgxMzMsMTAzLjg0MDIsMjYwNi40OTI3LDkyLjQxODIsMjU4Ny41Miw5Mi42MSIgc3R5bGU9InN0cm9rZTojMTgxODE4O3N0cm9rZS13aWR0aDoxLjA7Ii8+PC9nPjwhLS1saW5rIFB1enpsZVZpZXcgdG8gTW9kZVN0YXRlLS0+PGcgaWQ9ImxpbmtfUHV6emxlVmlld19Nb2RlU3RhdGUiPjxwYXRoIGNvZGVMaW5lPSIxNTMiIGQ9Ik03OTAuMjIsMjc1LjU4IEM4MjQuMjIsMjk4LjgxIDg2MC41MDU0LDMyMy41OTU5IDg5NC41NDU0LDM0Ni44NDU5ICIgZmlsbD0ibm9uZSIgaWQ9IlB1enpsZVZpZXctdG8tTW9kZVN0YXRlIiBzdHlsZT0ic3Ryb2tlOiMxODE4MTg7c3Ryb2tlLXdpZHRoOjEuMDsiLz48cG9seWdvbiBmaWxsPSIjMTgxODE4IiBwb2ludHM9Ijg5OS41LDM1MC4yMyw4OTQuMzI0MiwzNDEuODUwOCw4OTUuMzcxMiwzNDcuNDA5OSw4ODkuODEyMSwzNDguNDU2OSw4OTkuNSwzNTAuMjMiIHN0eWxlPSJzdHJva2U6IzE4MTgxODtzdHJva2Utd2lkdGg6MS4wOyIvPjx0ZXh0IGZpbGw9IiMwMDAwMDAiIGZvbnQtZmFtaWx5PSJzYW5zLXNlcmlmIiBmb250LXNpemU9IjEzIiBsZW5ndGhBZGp1c3Q9InNwYWNpbmciIHRleHRMZW5ndGg9IjYxIiB4PSI4MjIuMzUxNiIgeT0iMzQwLjc3NTgiPk1vZGVTdGF0ZTwvdGV4dD48L2c+PCEtLWxpbmsgUHV6emxlVmlldyB0byBQdXp6bGUtLT48ZyBpZD0ibGlua19QdXp6bGVWaWV3X1B1enpsZSI+PHBhdGggY29kZUxpbmU9IjE1NCIgZD0iTTYzMS4yNCwyNzUuNTggQzU3My4zNSwzMDQuMTggNTA1LjY1OTQsMzM3LjYyMjUgNDU0LjY4OTQsMzYyLjgwMjUgIiBmaWxsPSJub25lIiBpZD0iUHV6emxlVmlldy10by1QdXp6bGUiIHN0eWxlPSJzdHJva2U6IzE4MTgxODtzdHJva2Utd2lkdGg6MS4wOyIvPjxwb2x5Z29uIGZpbGw9IiMxODE4MTgiIHBvaW50cz0iNDQ5LjMxLDM2NS40Niw0NTkuMTUwNywzNjUuMDYsNDUzLjc5MjgsMzYzLjI0NTQsNDU1LjYwNzQsMzU3Ljg4NzUsNDQ5LjMxLDM2NS40NiIgc3R5bGU9InN0cm9rZTojMTgxODE4O3N0cm9rZS13aWR0aDoxLjA7Ii8+PHRleHQgZmlsbD0iIzAwMDAwMCIgZm9udC1mYW1pbHk9InNhbnMtc2VyaWYiIGZvbnQtc2l6ZT0iMTMiIGxlbmd0aEFkanVzdD0ic3BhY2luZyIgdGV4dExlbmd0aD0iNDEiIHg9IjQxNy44NjI5IiB5PSIzNTYuMDU5OCI+UHV6emxlPC90ZXh0PjwvZz48IS0tbGluayBQdXp6bGVWaWV3IHRvIFBsYXllci0tPjxnIGlkPSJsaW5rX1B1enpsZVZpZXdfUGxheWVyIj48cGF0aCBjb2RlTGluZT0iMTU1IiBkPSJNNzAyLjI2LDI3NS44IEM2OTIuNjQsMjk2LjUzIDY4My43MzM1LDMxNS43MTY1IDY3My43NDM1LDMzNy4yNjY1ICIgZmlsbD0ibm9uZSIgaWQ9IlB1enpsZVZpZXctdG8tUGxheWVyIiBzdHlsZT0ic3Ryb2tlOiMxODE4MTg7c3Ryb2tlLXdpZHRoOjEuMDsiLz48cG9seWdvbiBmaWxsPSIjMTgxODE4IiBwb2ludHM9IjY3MS4yMiwzNDIuNzEsNjc4LjYzNDIsMzM2LjIyNyw2NzMuMzIyOSwzMzguMTczNyw2NzEuMzc2MiwzMzIuODYyNCw2NzEuMjIsMzQyLjcxIiBzdHlsZT0ic3Ryb2tlOiMxODE4MTg7c3Ryb2tlLXdpZHRoOjEuMDsiLz48dGV4dCBmaWxsPSIjMDAwMDAwIiBmb250LWZhbWlseT0ic2Fucy1zZXJpZiIgZm9udC1zaXplPSIxMyIgbGVuZ3RoQWRqdXN0PSJzcGFjaW5nIiB0ZXh0TGVuZ3RoPSI0MSIgeD0iNjMwLjgxMzQiIHk9IjMzMy41MTkxIj5QbGF5ZXI8L3RleHQ+PC9nPjwhLS1saW5rIEdhbWVDb250cm9sbGVyIHRvIFB1enpsZS0tPjxnIGlkPSJsaW5rX0dhbWVDb250cm9sbGVyX1B1enpsZSI+PHBhdGggY29kZUxpbmU9IjE2MyIgZD0iTTQ5OC44MywxMDcuNzQgQzQ3Mi4xMywxNzYuODggNDI0LjM1MjEsMzAwLjU5MzEgNDAxLjU1MjEsMzU5LjYxMzEgIiBmaWxsPSJub25lIiBpZD0iR2FtZUNvbnRyb2xsZXItdG8tUHV6emxlIiBzdHlsZT0ic3Ryb2tlOiMxODE4MTg7c3Ryb2tlLXdpZHRoOjEuMDsiLz48cG9seWdvbiBmaWxsPSIjMTgxODE4IiBwb2ludHM9IjM5OS4zOSwzNjUuMjEsNDA2LjM2NDUsMzU4LjI1NjEsNDAxLjE5MTgsMzYwLjU0NTksMzk4LjkwMTksMzU1LjM3MzIsMzk5LjM5LDM2NS4yMSIgc3R5bGU9InN0cm9rZTojMTgxODE4O3N0cm9rZS13aWR0aDoxLjA7Ii8+PHRleHQgZmlsbD0iIzAwMDAwMCIgZm9udC1mYW1pbHk9InNhbnMtc2VyaWYiIGZvbnQtc2l6ZT0iMTMiIGxlbmd0aEFkanVzdD0ic3BhY2luZyIgdGV4dExlbmd0aD0iNDEiIHg9IjM1Ni4zOTg5IiB5PSIzNTUuNzUyIj5QdXp6bGU8L3RleHQ+PC9nPjwhLS1saW5rIEdhbWVDb250cm9sbGVyIHRvIFBsYXllci0tPjxnIGlkPSJsaW5rX0dhbWVDb250cm9sbGVyX1BsYXllciI+PHBhdGggY29kZUxpbmU9IjE2NCIgZD0iTTUxNy4xMjcxLDExOS42MzEzIEM1MTguODg3MSwxNjUuODAxMyA1MjUuNjIsMjI2LjI4IDU1MS41LDI4MyBDNTYxLjM0LDMwNC41NyA1NzIuNTQyMSwzMjAuNzY0NCA1ODcuODYyMSwzMzguNDU0NCAiIGZpbGw9Im5vbmUiIGlkPSJHYW1lQ29udHJvbGxlci1QbGF5ZXIiIHN0eWxlPSJzdHJva2U6IzE4MTgxODtzdHJva2Utd2lkdGg6MS4wOyIvPjxwb2x5Z29uIGZpbGw9Im5vbmUiIHBvaW50cz0iNTE2LjY3LDEwNy42NCw1MTIuOTAxNSwxMTMuNzg4LDUxNy4xMjcxLDExOS42MzEzLDUyMC44OTU3LDExMy40ODMzLDUxNi42NywxMDcuNjQiIHN0eWxlPSJzdHJva2U6IzE4MTgxODtzdHJva2Utd2lkdGg6MS4wOyIvPjxwb2x5Z29uIGZpbGw9IiMxODE4MTgiIHBvaW50cz0iNTkxLjc5LDM0Mi45OSw1ODguOTIxOCwzMzMuNTY4LDU4OC41MTY3LDMzOS4yMTA0LDU4Mi44NzQ0LDMzOC44MDUzLDU5MS43OSwzNDIuOTkiIHN0eWxlPSJzdHJva2U6IzE4MTgxODtzdHJva2Utd2lkdGg6MS4wOyIvPjx0ZXh0IGZpbGw9IiMwMDAwMDAiIGZvbnQtZmFtaWx5PSJzYW5zLXNlcmlmIiBmb250LXNpemU9IjEzIiBsZW5ndGhBZGp1c3Q9InNwYWNpbmciIHRleHRMZW5ndGg9IjQxIiB4PSI1MzkuNzQzNSIgeT0iMzMzLjQ2MzQiPlBsYXllcjwvdGV4dD48L2c+PCEtLWxpbmsgR2FtZUNvbnRyb2xsZXIgdG8gUHV6emxlVmlldy0tPjxnIGlkPSJsaW5rX0dhbWVDb250cm9sbGVyX1B1enpsZVZpZXciPjxwYXRoIGNvZGVMaW5lPSIxNjUiIGQ9Ik01NzMuMzQsMTA3LjU4IEM2MDIuMywxMzAuODEgNjMyLjc0ODcsMTU1LjIyNjkgNjYxLjc0ODcsMTc4LjQ3NjkgIiBmaWxsPSJub25lIiBpZD0iR2FtZUNvbnRyb2xsZXItdG8tUHV6emxlVmlldyIgc3R5bGU9InN0cm9rZTojMTgxODE4O3N0cm9rZS13aWR0aDoxLjA7Ii8+PHBvbHlnb24gZmlsbD0iIzE4MTgxOCIgcG9pbnRzPSI2NjYuNDMsMTgyLjIzLDY2MS45MTAyLDE3My40Nzk1LDY2Mi41Mjg5LDE3OS4xMDI0LDY1Ni45MDYsMTc5LjcyMTIsNjY2LjQzLDE4Mi4yMyIgc3R5bGU9InN0cm9rZTojMTgxODE4O3N0cm9rZS13aWR0aDoxLjA7Ii8+PHRleHQgZmlsbD0iIzAwMDAwMCIgZm9udC1mYW1pbHk9InNhbnMtc2VyaWYiIGZvbnQtc2l6ZT0iMTMiIGxlbmd0aEFkanVzdD0ic3BhY2luZyIgdGV4dExlbmd0aD0iNjciIHg9IjU4NC40MjkzIiB5PSIxNzIuNzc1OCI+UHV6emxlVmlldzwvdGV4dD48L2c+PCEtLWxpbmsgUGxheWVyIHRvIENvb3JkLS0+PGcgaWQ9ImxpbmtfUGxheWVyX0Nvb3JkIj48cGF0aCBjb2RlTGluZT0iMTgwIiBkPSJNNTQ0LjgyLDQ0NC45OSBDNTM5LjAxLDQ0Ny4xNSA1MzMuMjEsNDQ5LjE3IDUyNy41LDQ1MSBDNDAxLjM2LDQ5MS41MiAzNTcuNDEsNDU5LjEzIDIzNS41LDUxMSBDMjIxLjU5LDUxNi45MiAyMTIuNjM0OSw1MjEuNjQ2IDE5OS43NTQ5LDUzMC4xMDYgIiBmaWxsPSJub25lIiBpZD0iUGxheWVyLXRvLUNvb3JkIiBzdHlsZT0ic3Ryb2tlOiMxODE4MTg7c3Ryb2tlLXdpZHRoOjEuMDsiLz48cG9seWdvbiBmaWxsPSIjMTgxODE4IiBwb2ludHM9IjE5NC43NCw1MzMuNCwyMDQuNDU4NCw1MzEuODAyMywxOTguOTE5MSw1MzAuNjU1LDIwMC4wNjY0LDUyNS4xMTU3LDE5NC43NCw1MzMuNCIgc3R5bGU9InN0cm9rZTojMTgxODE4O3N0cm9rZS13aWR0aDoxLjA7Ii8+PHRleHQgZmlsbD0iIzAwMDAwMCIgZm9udC1mYW1pbHk9InNhbnMtc2VyaWYiIGZvbnQtc2l6ZT0iMTMiIGxlbmd0aEFkanVzdD0ic3BhY2luZyIgdGV4dExlbmd0aD0iNDIiIHg9IjE1OC45MDc5IiB5PSI1MjMuOTc0Ij5Db29yZHM8L3RleHQ+PC9nPjwhLS1TUkM9W3BMVjlSamltNEJ0aEFtWVZQMkotMEs3OG1LOE01c1hXcjQyUTcxYzlpT2RJZjQ1SVpmdEtfcnVrNFhUOVRlQk1HOWczUTlBcGwzU1NwWjBiV0tBMFFPcjlYSlh1SnUzd2tzWmR3R2ljUTRQVk1CUWVBX1FobGNjY3VxUmk1aWJ2X1ZQNkszZTY2UjBfY3dzNXNjOTJ1NlUyeGtsckMtOFlOS0RDMnI4QllOWk1aNWZqb3QzTEFFTnY1ZERQR3Q5cjFHZ0VlNElEZDRZVHYyNlBqTVpwdHZEOTJwTDk0YW9MdjBpaTRQWHItUnAzUG80dkJFTlhnRHFaV2hTU0xvY2NjcmZjUVdGSlBLVlhodFdFbmtzV0E5SmNEQnhYZk8ybE5HeEh3a2NKb05Fc0hMbVhIb2dHNXZ6WUNnV281RnFlLTE0Y1h0eTFycE03azRpV05sdkY2Q0lXNzhLMjRVQTB3cWJRQ2lRaGhEM1ZJbzBhdkY4MWFYZmJBa2w2RVlhQmpqdW1ZZ1lxVGhMRU9nbkM5YlRXUEZINm0wcFVZR05kX1RYdkVjWkZ4WUxVTVBqb2dlLUE3alFvLUg5OW5KX0ZYSHdSdFFVSmt5UElrakRDQmk2LTlISlQ5bV9jRkdhSUxQX1AzbUhMdTZ4S2JNNXl4d2NPd0JUZFFpdncza0tnRUJWdXIwRVp6WmV1SXlyNUVQZWpYd0dEZXViSlN2YVE4b1JzaFVvZXd6RTdhZERLSWlwZVRyUVhYTEo4RlA3LU5oZW5uWHltVWl0Y3hrVk9yUjBXM09pTGZDajZnclZoMGhjdlllZUNTekczaVFWVkhuNFMwZU1hM3BuVV9XQkNDRzA3em13SEpIempqRmU1TzJGXzJjbFIxZTA1dEdWeUlSMTFGLWIwd0ZVUjhJaDFOTUNyZC14cnJ6eXdYcVBGek5Bdy1VMklwRzliVXFlM1BrRXhfb19rdWV2c0xrMVRheXhORlFQZWtqVlZpX2VSQ2psalU2VHJzQkZmbFU3VFRBeS12dE5OQy1oekhTZjFRTEg5ZWJmMjFnb1ZPLXQ1YmtTeFg5U2hVUmVITVNjVms5QWhhdThCXzhQRTJjWWlycGs1SmdZSS1INzBjOXZnejhQTTZ4blVQekJOa3pFVHo1OUoxdmVRUzBhczFFeEwwdDFrWGhPU2JFUUV3emdIS2hJSnZoOWRoZkhxUWFFbFBXTi1KTURwWVlEVlpkZjJUWndBNnNFbVJWMmZSSkN3Z2hUbVpWSnZTYVA4YTV4blNaZnNuTjJCaDA1NXd4Tm1Cd0tFZXNqVExVbXBFUUxjQ0F5RHB4M1pUZVgwSHVHRGEzWGtIVkNVMU9WYy1DeHFnXzhFcVlmYTZvd2NveVhlNWxpOF9ZNG9JYUM1dDhCcGNNRlo1T1JHbFo3NU9FWEt1WnhRWHpoT1BodlZWdWhOTFB2T0pfeFhBUGdOdm55MF0tLT48L2c+PC9zdmc+;" parent="1" vertex="1">
            <mxGeometry x="-1890" y="90" width="3311" height="655" as="geometry" />
          </mxCell>
        </UserObject>
        <mxCell id="vayibTciEI2FYP_u4-QQ-2" value="&lt;font style=&quot;font-size: 20px;&quot;&gt;State Pattern&lt;/font&gt;" style="rounded=0;whiteSpace=wrap;html=1;" parent="1" vertex="1">
          <mxGeometry x="-340" y="630" width="160" height="80" as="geometry" />
        </mxCell>
        <mxCell id="vayibTciEI2FYP_u4-QQ-4" value="&lt;font style=&quot;font-size: 20px;&quot;&gt;Composite Pattern&lt;/font&gt;" style="rounded=0;whiteSpace=wrap;html=1;" parent="1" vertex="1">
          <mxGeometry x="-1890" y="120" width="160" height="80" as="geometry" />
        </mxCell>
        <mxCell id="vayibTciEI2FYP_u4-QQ-5" value="&lt;font style=&quot;font-size: 20px;&quot;&gt;Builder Pattern&lt;/font&gt;" style="rounded=0;whiteSpace=wrap;html=1;" parent="1" vertex="1">
          <mxGeometry x="-770" y="280" width="160" height="80" as="geometry" />
        </mxCell>
        <mxCell id="vayibTciEI2FYP_u4-QQ-6" value="&lt;font style=&quot;font-size: 20px;&quot;&gt;Factory Pattern&lt;/font&gt;" style="rounded=0;whiteSpace=wrap;html=1;" parent="1" vertex="1">
          <mxGeometry x="530" y="377.5" width="160" height="80" as="geometry" />
        </mxCell>
        <mxCell id="vayibTciEI2FYP_u4-QQ-7" value="Composite pattern moeten we nog uitzoeken hoe en wat precies" style="rounded=0;whiteSpace=wrap;html=1;" parent="1" vertex="1">
          <mxGeometry x="-1880" y="210" width="120" height="60" as="geometry" />
        </mxCell>
      </root>
    </mxGraphModel>
  </diagram>
</mxfile>
